<svg baseProfile="full" height="16" version="1.1" width="16" xmlns="http://www.w3.org/2000/svg" xmlns:ev="http://www.w3.org/2001/xml-events" xmlns:xlink="http://www.w3.org/1999/xlink"><defs /><polygon fill="black" points="11.296875,13.609375" /><polygon fill="black" points="10.984375,13.609375 11.0,13.609375" /><polygon fill="black" points="10.9375,13.609375" /><polygon fill="black" points="10.796875,13.609375 10.90625,13.609375" /><polygon fill="black" points="10.734375,13.609375 10.765625,13.609375" /><polygon fill="black" points="10.6875,13.609375 10.703125,13.609375" /><polygon fill="black" points="10.625,13.609375 10.65625,13.609375" /><polygon fill="black" points="10.578125,13.609375" /><polygon fill="black" points="10.5,13.609375 10.53125,13.609375" /><polygon fill="black" points="10.453125,13.609375 10.46875,13.609375" /><polygon fill="black" points="10.40625,13.609375" /><polygon fill="black" points="10.359375,13.609375 10.375,13.609375" /><polygon fill="black" points="10.328125,13.609375" /><polygon fill="black" points="10.25,13.609375" /><polygon fill="black" points="10.203125,13.609375" /><polygon fill="black" points="10.109375,13.609375 10.15625,13.609375" /><polygon fill="black" points="10.046875,13.609375 10.078125,13.609375" /><polygon fill="black" points="10.0,13.609375 10.015625,13.609375" /><polygon fill="black" points="9.953125,13.609375" /><polygon fill="black" points="9.875,13.609375 9.90625,13.609375" /><polygon fill="black" points="9.8125,13.609375 9.828125,13.609375" /><polygon fill="black" points="9.734375,13.609375 9.78125,13.609375" /><polygon fill="black" points="9.625,13.609375 9.703125,13.609375" /><polygon fill="black" points="9.5625,13.609375 9.578125,13.609375" /><polygon fill="black" points="9.484375,13.609375 9.53125,13.609375" /><polygon fill="black" points="9.4375,13.609375 9.453125,13.609375" /><polygon fill="black" points="9.3125,13.609375 9.40625,13.609375" /><polygon fill="black" points="9.109375,13.609375 9.25,13.609375" /><polygon fill="black" points="9.0625,13.609375 9.078125,13.609375" /><polygon fill="black" points="9.0,13.609375 9.03125,13.609375" /><polygon fill="black" points="8.953125,13.609375 8.96875,13.609375" /><polygon fill="black" points="8.828125,13.609375 8.84375,13.609375" /><polygon fill="black" points="8.75,13.609375 8.765625,13.609375" /><polygon fill="black" points="8.671875,13.609375 8.703125,13.609375" /><polygon fill="black" points="8.578125,13.609375 8.640625,13.609375" /><polygon fill="black" points="8.484375,13.609375 8.546875,13.609375" /><polygon fill="black" points="8.453125,13.609375" /><polygon fill="black" points="8.40625,13.609375" /><polygon fill="black" points="8.359375,13.609375" /><polygon fill="black" points="8.3125,13.609375 8.328125,13.609375" /><polygon fill="black" points="8.234375,13.609375 8.28125,13.609375" /><polygon fill="black" points="8.1875,13.609375 8.203125,13.609375" /><polygon fill="black" points="8.125,13.609375 8.140625,13.609375" /><polygon fill="black" points="8.078125,13.609375" /><polygon fill="black" points="7.875,13.609375 8.015625,13.609375" /><polygon fill="black" points="7.8125,13.609375 7.828125,13.609375" /><polygon fill="black" points="7.75,13.609375 7.78125,13.609375" /><polygon fill="black" points="7.703125,13.609375" /><polygon fill="black" points="7.625,13.609375 7.671875,13.609375" /><polygon fill="black" points="7.5625,13.609375 7.578125,13.609375" /><polygon fill="black" points="7.484375,13.609375 7.515625,13.609375" /><polygon fill="black" points="7.4375,13.609375 7.453125,13.609375" /><polygon fill="black" points="7.375,13.609375 7.390625,13.609375" /><polygon fill="black" points="7.3125,13.609375 7.328125,13.609375" /><polygon fill="black" points="7.25,13.609375 7.28125,13.609375" /><polygon fill="black" points="7.171875,13.609375 7.1875,13.609375" /><polygon fill="black" points="7.125,13.609375 7.140625,13.609375" /><polygon fill="black" points="7.0625,13.609375 7.078125,13.609375" /><polygon fill="black" points="7.0,13.609375" /><polygon fill="black" points="6.953125,13.609375" /><polygon fill="black" points="6.859375,13.609375 6.921875,13.609375" /><polygon fill="black" points="6.8125,13.609375 6.828125,13.609375" /><polygon fill="black" points="6.75,13.609375 6.78125,13.609375" /><polygon fill="black" points="6.6875,13.609375 6.703125,13.609375" /><polygon fill="black" points="6.625,13.609375 6.65625,13.609375" /><polygon fill="black" points="6.578125,13.609375" /><polygon fill="black" points="6.53125,13.609375" /><polygon fill="black" points="6.5,13.609375" /><polygon fill="black" points="6.453125,13.609375" /><polygon fill="black" points="6.421875,13.609375" /><polygon fill="black" points="6.375,13.609375 6.390625,13.609375" /><polygon fill="black" points="6.28125,13.609375" /><polygon fill="black" points="6.234375,13.609375" /><polygon fill="black" points="6.203125,13.609375" /><polygon fill="black" points="6.140625,13.609375" /><polygon fill="black" points="6.03125,13.609375 6.078125,13.609375" /><polygon fill="black" points="5.953125,13.609375 6.0,13.609375" /><polygon fill="black" points="5.875,13.609375 5.90625,13.609375" /><polygon fill="black" points="5.75,13.609375 5.796875,13.609375" /><polygon fill="black" points="5.703125,13.609375" /><polygon fill="black" points="5.65625,13.609375" /><polygon fill="black" points="5.609375,13.609375 5.625,13.609375" /><polygon fill="black" points="5.578125,13.609375" /><polygon fill="black" points="5.546875,13.609375" /><polygon fill="black" points="5.5,13.609375 5.515625,13.609375" /><polygon fill="black" points="5.4375,13.609375 5.453125,13.609375" /><polygon fill="black" points="5.375,13.609375 5.40625,13.609375" /><polygon fill="black" points="5.328125,13.609375" /><polygon fill="black" points="5.25,13.609375 5.265625,13.609375" /><polygon fill="black" points="5.15625,13.609375 5.203125,13.609375" /><polygon fill="black" points="5.125,13.609375" /><polygon fill="black" points="5.078125,13.609375" /><polygon fill="black" points="5.0,13.609375" /><polygon fill="black" points="4.9375,13.609375 4.953125,13.609375" /><polygon fill="black" points="4.875,13.609375" /><polygon fill="black" points="4.75,13.59375 4.75,13.609375 4.765625,13.59375" /><polygon fill="black" points="4.71875,13.578125" /><polygon fill="black" points="11.328125,13.546875" /><polygon fill="black" points="11.4375,13.484375" /><polygon fill="black" points="4.515625,13.4375" /><polygon fill="black" points="4.4375,13.234375" /><polygon fill="black" points="4.421875,13.140625 4.4375,13.15625" /><polygon fill="black" points="11.546875,13.078125" /><polygon fill="black" points="4.4375,13.046875" /><polygon fill="black" points="11.53125,12.921875" /><polygon fill="black" points="11.484375,12.46875" /><polygon fill="black" points="4.5,12.4375" /><polygon fill="black" points="4.515625,12.359375 4.5,12.375" /><polygon fill="black" points="4.5,12.296875 4.515625,12.3125 4.515625,12.328125 4.515625,12.296875" /><polygon fill="black" points="4.53125,12.1875 4.53125,12.203125" /><polygon fill="black" points="4.53125,12.0" /><polygon fill="black" points="4.5625,11.984375" /><polygon fill="black" points="11.40625,11.890625" /><polygon fill="black" points="11.328125,11.625" /><polygon fill="black" points="4.65625,11.609375" /><polygon fill="black" points="11.359375,11.578125" /><polygon fill="black" points="11.28125,11.515625" /><polygon fill="black" points="4.65625,11.515625" /><polygon fill="black" points="11.421875,11.234375" /><polygon fill="black" points="11.4375,11.203125" /><polygon fill="black" points="11.453125,11.15625" /><polygon fill="black" points="11.5625,11.109375" /><polygon fill="black" points="11.53125,11.109375" /><polygon fill="black" points="4.453125,11.078125 4.453125,11.09375 4.46875,11.078125" /><polygon fill="black" points="4.34375,10.984375" /><polygon fill="black" points="11.671875,10.96875" /><polygon fill="black" points="4.25,10.921875" /><polygon fill="black" points="11.859375,10.859375" /><polygon fill="black" points="11.765625,10.859375" /><polygon fill="black" points="4.125,10.765625" /><polygon fill="black" points="4.140625,10.734375" /><polygon fill="black" points="4.125,10.703125" /><polygon fill="black" points="3.84375,10.359375" /><polygon fill="black" points="12.296875,10.203125" /><polygon fill="black" points="3.625,10.109375" /><polygon fill="black" points="12.4375,9.96875" /><polygon fill="black" points="12.421875,9.921875" /><polygon fill="black" points="12.46875,9.890625" /><polygon fill="black" points="12.46875,9.859375" /><polygon fill="black" points="12.5625,9.65625" /><polygon fill="black" points="3.375,9.609375" /><polygon fill="black" points="3.375,9.515625 3.375,9.53125" /><polygon fill="black" points="12.703125,9.359375" /><polygon fill="black" points="3.3125,9.34375" /><polygon fill="black" points="12.71875,9.296875" /><polygon fill="black" points="3.296875,9.296875 3.28125,9.3125 3.296875,9.3125" /><polygon fill="black" points="12.84375,9.046875" /><polygon fill="black" points="12.8125,9.03125" /><polygon fill="black" points="12.828125,8.984375" /><polygon fill="black" points="3.1875,8.984375" /><polygon fill="black" points="3.140625,8.984375 3.15625,8.984375" /><polygon fill="black" points="3.125,8.9375" /><polygon fill="black" points="12.84375,8.921875 12.84375,8.9375" /><polygon fill="black" points="12.859375,8.890625" /><polygon fill="black" points="12.953125,8.484375" /><polygon fill="black" points="3.0625,8.46875 3.0625,8.484375" /><polygon fill="black" points="3.015625,8.421875" /><polygon fill="black" points="12.984375,8.359375" /><polygon fill="black" points="3.046875,8.359375 3.046875,8.390625" /><polygon fill="black" points="3.03125,8.328125" /><polygon fill="black" points="3.0,8.078125" /><polygon fill="black" points="3.0,8.03125" /><polygon fill="black" points="3.0,7.96875 3.0,8.0" /><polygon fill="black" points="13.046875,7.703125" /><polygon fill="black" points="13.09375,7.546875" /><polygon fill="black" points="13.046875,7.453125" /><polygon fill="black" points="3.0,6.953125" /><polygon fill="black" points="12.96875,6.625" /><polygon fill="black" points="3.046875,6.59375 3.03125,6.609375" /><polygon fill="black" points="3.0625,6.53125" /><polygon fill="black" points="12.953125,6.359375" /><polygon fill="black" points="3.140625,6.140625 3.125,6.15625 3.140625,6.171875 3.140625,6.1875 3.140625,6.171875 3.125,6.15625" /><polygon fill="black" points="3.125,6.015625" /><polygon fill="black" points="3.265625,5.765625 3.25,5.78125" /><polygon fill="black" points="12.734375,5.75" /><polygon fill="black" points="12.734375,5.703125" /><polygon fill="black" points="12.703125,5.65625" /><polygon fill="black" points="3.3125,5.640625" /><polygon fill="black" points="12.71875,5.625" /><polygon fill="black" points="3.265625,5.625" /><polygon fill="black" points="12.65625,5.546875" /><polygon fill="black" points="3.375,5.390625" /><polygon fill="black" points="3.78125,4.6875" /><polygon fill="black" points="3.84375,4.625" /><polygon fill="black" points="3.875,4.5625" /><polygon fill="black" points="11.9375,4.25 11.921875,4.265625" /><polygon fill="black" points="4.171875,4.1875 4.1875,4.1875" /><polygon fill="black" points="4.125,4.171875" /><polygon fill="black" points="4.15625,4.140625" /><polygon fill="black" points="11.859375,4.125" /><polygon fill="black" points="4.28125,4.078125" /><polygon fill="black" points="11.71875,4.0625" /><polygon fill="black" points="11.71875,4.0" /><polygon fill="black" points="4.390625,3.921875" /><polygon fill="black" points="11.609375,3.890625" /><polygon fill="black" points="4.375,3.875 4.390625,3.875" /><polygon fill="black" points="4.59375,3.75" /><polygon fill="black" points="4.546875,3.75" /><polygon fill="black" points="4.734375,3.640625 4.71875,3.65625" /><polygon fill="black" points="11.109375,3.421875" /><polygon fill="black" points="5.0,3.40625 5.0,3.421875 5.015625,3.40625" /><polygon fill="black" points="5.0625,3.375" /><polygon fill="black" points="5.03125,3.375" /><polygon fill="black" points="5.125,3.296875" /><polygon fill="black" points="5.203125,3.265625" /><polygon fill="black" points="5.15625,3.265625" /><polygon fill="black" points="10.859375,3.25" /><polygon fill="black" points="5.359375,3.1875" /><polygon fill="black" points="5.40625,3.15625" /><polygon fill="black" points="5.546875,3.078125" /><polygon fill="black" points="10.4375,3.046875" /><polygon fill="black" points="5.625,3.03125 5.609375,3.046875" /><polygon fill="black" points="10.390625,3.0" /><polygon fill="black" points="5.703125,3.0" /><polygon fill="black" points="5.796875,2.953125" /><polygon fill="black" points="5.75,2.921875" /><polygon fill="black" points="5.8125,2.890625" /><polygon fill="black" points="5.75,2.890625" /><polygon fill="black" points="10.046875,2.875" /><polygon fill="black" points="5.96875,2.875" /><polygon fill="black" points="5.890625,2.875 5.90625,2.875" /><polygon fill="black" points="9.9375,2.828125" /><polygon fill="black" points="6.140625,2.796875 6.15625,2.796875" /><polygon fill="black" points="6.1875,2.78125" /><polygon fill="black" points="9.71875,2.75" /><polygon fill="black" points="6.21875,2.75 6.234375,2.765625 6.25,2.75 6.234375,2.765625" /><polygon fill="black" points="9.609375,2.703125" /><polygon fill="black" points="6.40625,2.703125 6.421875,2.703125" /><polygon fill="black" points="6.46875,2.6875" /><polygon fill="black" points="9.515625,2.671875" /><polygon fill="black" points="6.5,2.671875" /><polygon fill="black" points="9.46875,2.625 9.453125,2.640625 9.46875,2.625 9.484375,2.625" /><polygon fill="black" points="9.40625,2.625 9.390625,2.640625 9.375,2.640625 9.390625,2.640625" /><polygon fill="black" points="9.34375,2.625" /><polygon fill="black" points="9.3125,2.625" /><polygon fill="black" points="6.671875,2.625 6.6875,2.625" /><polygon fill="black" points="9.171875,2.578125" /><polygon fill="black" points="6.890625,2.578125" /><polygon fill="black" points="9.046875,2.5625 9.0625,2.5625" /><polygon fill="black" points="6.9375,2.5625" /><polygon fill="black" points="8.96875,2.546875" /><polygon fill="black" points="7.015625,2.546875 7.03125,2.546875" /><polygon fill="black" points="9.015625,2.515625" /><polygon fill="black" points="7.1875,2.515625 7.203125,2.515625" /><polygon fill="black" points="8.640625,2.5 8.71875,2.5 8.734375,2.515625 8.734375,2.5" /><polygon fill="black" points="7.25,2.5 7.265625,2.5" /><polygon fill="black" points="6.984375,2.5" /><polygon fill="black" points="7.796875,2.484375 7.78125,2.5 7.46875,2.5 7.453125,2.515625 7.40625,2.515625 7.390625,2.5 7.3125,2.5 7.34375,2.5 7.359375,2.515625 7.34375,2.53125 7.265625,2.53125 7.25,2.546875 7.15625,2.546875 7.140625,2.5625 7.0625,2.5625 7.046875,2.578125 7.0,2.578125 6.984375,2.59375 6.921875,2.59375 6.90625,2.609375 6.84375,2.609375 6.828125,2.625 6.78125,2.625 6.765625,2.640625 6.734375,2.640625 6.71875,2.65625 6.671875,2.65625 6.65625,2.671875 6.609375,2.671875 6.59375,2.65625 6.609375,2.640625 6.609375,2.625 6.609375,2.640625 6.59375,2.65625 6.609375,2.671875 6.59375,2.6875 6.5625,2.6875 6.546875,2.703125 6.5,2.703125 6.484375,2.71875 6.453125,2.71875 6.4375,2.734375 6.40625,2.734375 6.390625,2.75 6.359375,2.75 6.34375,2.765625 6.3125,2.765625 6.296875,2.75 6.3125,2.765625 6.296875,2.78125 6.265625,2.78125 6.25,2.796875 6.234375,2.796875 6.21875,2.8125 6.1875,2.8125 6.171875,2.828125 6.140625,2.828125 6.125,2.84375 6.109375,2.84375 6.09375,2.859375 6.078125,2.859375 6.0625,2.875 6.03125,2.875 6.015625,2.890625 6.0,2.890625 5.984375,2.90625 5.953125,2.90625 5.9375,2.921875 5.921875,2.921875 5.90625,2.9375 5.890625,2.9375 5.875,2.921875 5.890625,2.9375 5.875,2.953125 5.859375,2.953125 5.84375,2.96875 5.828125,2.96875 5.8125,2.984375 5.796875,2.984375 5.78125,3.0 5.75,3.0 5.71875,3.03125 5.703125,3.03125 5.6875,3.046875 5.671875,3.046875 5.65625,3.03125 5.671875,3.046875 5.65625,3.0625 5.640625,3.0625 5.625,3.078125 5.609375,3.078125 5.59375,3.09375 5.578125,3.09375 5.5625,3.109375 5.546875,3.109375 5.515625,3.140625 5.5,3.140625 5.484375,3.125 5.5,3.140625 5.484375,3.15625 5.46875,3.15625 5.453125,3.140625 5.46875,3.15625 5.4375,3.1875 5.421875,3.1875 5.40625,3.203125 5.390625,3.203125 5.359375,3.234375 5.34375,3.234375 5.328125,3.25 5.3125,3.25 5.296875,3.265625 5.28125,3.25 5.296875,3.265625 5.28125,3.28125 5.265625,3.28125 5.234375,3.25 5.265625,3.28125 5.234375,3.3125 5.21875,3.3125 5.1875,3.34375 5.171875,3.34375 5.140625,3.375 5.125,3.375 5.109375,3.390625 5.09375,3.375 5.109375,3.390625 5.09375,3.40625 5.078125,3.40625 5.0625,3.421875 5.046875,3.40625 5.0625,3.421875 5.03125,3.453125 5.015625,3.453125 4.984375,3.484375 4.96875,3.484375 4.9375,3.515625 4.921875,3.5 4.9375,3.515625 4.90625,3.546875 4.890625,3.546875 4.875,3.53125 4.890625,3.515625 4.890625,3.5 4.890625,3.515625 4.875,3.53125 4.890625,3.546875 4.828125,3.609375 4.8125,3.609375 4.78125,3.640625 4.765625,3.625 4.78125,3.640625 4.71875,3.703125 4.703125,3.703125 4.65625,3.75 4.625,3.75 4.625,3.765625 4.609375,3.78125 4.609375,3.796875 4.59375,3.8125 4.578125,3.8125 4.5625,3.828125 4.53125,3.796875 4.546875,3.78125 4.5625,3.78125 4.546875,3.78125 4.53125,3.796875 4.546875,3.8125 4.53125,3.828125 4.546875,3.84375 4.5,3.890625 4.484375,3.875 4.453125,3.875 4.4375,3.890625 4.453125,3.875 4.484375,3.90625 4.390625,4.0 4.375,4.0 4.375,4.015625 4.328125,4.0625 4.3125,4.046875 4.3125,4.0625 4.328125,4.078125 4.265625,4.140625 4.25,4.125 4.265625,4.140625 4.21875,4.1875 4.21875,4.203125 4.125,4.296875 4.125,4.3125 4.078125,4.359375 4.078125,4.375 4.0625,4.390625 4.046875,4.375 4.0625,4.390625 4.03125,4.421875 4.015625,4.40625 4.03125,4.421875 4.015625,4.4375 4.015625,4.453125 3.96875,4.5 3.96875,4.515625 3.953125,4.53125 3.9375,4.515625 3.921875,4.515625 3.9375,4.515625 3.953125,4.53125 3.921875,4.5625 3.90625,4.546875 3.921875,4.5625 3.921875,4.578125 3.890625,4.609375 3.875,4.609375 3.890625,4.625 3.859375,4.65625 3.859375,4.671875 3.828125,4.703125 3.828125,4.71875 3.796875,4.75 3.796875,4.765625 3.765625,4.796875 3.75,4.78125 3.75,4.765625 3.765625,4.75 3.75,4.765625 3.75,4.78125 3.765625,4.796875 3.765625,4.8125 3.75,4.828125 3.75,4.84375 3.71875,4.875 3.71875,4.890625 3.703125,4.90625 3.6875,4.890625 3.6875,4.875 3.671875,4.875 3.65625,4.890625 3.640625,4.890625 3.65625,4.90625 3.640625,4.921875 3.625,4.921875 3.640625,4.921875 3.65625,4.90625 3.65625,4.890625 3.671875,4.875 3.703125,4.90625 3.703125,4.921875 3.671875,4.953125 3.671875,4.96875 3.65625,4.984375 3.65625,5.0 3.640625,5.015625 3.625,5.0 3.625,4.96875 3.640625,4.953125 3.625,4.96875 3.625,5.015625 3.640625,5.03125 3.609375,5.0625 3.609375,5.078125 3.59375,5.09375 3.59375,5.109375 3.578125,5.125 3.578125,5.140625 3.5625,5.15625 3.5625,5.171875 3.546875,5.1875 3.546875,5.203125 3.53125,5.21875 3.515625,5.203125 3.515625,5.1875 3.515625,5.203125 3.53125,5.21875 3.53125,5.234375 3.515625,5.25 3.5,5.234375 3.5,5.25 3.515625,5.265625 3.5,5.28125 3.5,5.296875 3.484375,5.3125 3.484375,5.328125 3.46875,5.34375 3.46875,5.359375 3.453125,5.375 3.453125,5.390625 3.4375,5.40625 3.421875,5.390625 3.40625,5.390625 3.421875,5.390625 3.4375,5.40625 3.4375,5.4375 3.421875,5.453125 3.421875,5.46875 3.40625,5.484375 3.40625,5.5 3.390625,5.515625 3.390625,5.546875 3.375,5.5625 3.375,5.578125 3.359375,5.59375 3.359375,5.609375 3.34375,5.625 3.34375,5.65625 3.328125,5.671875 3.328125,5.703125 3.3125,5.71875 3.3125,5.75 3.296875,5.765625 3.296875,5.78125 3.28125,5.796875 3.28125,5.828125 3.25,5.859375 3.265625,5.875 3.25,5.890625 3.25,5.921875 3.234375,5.9375 3.234375,5.96875 3.21875,5.984375 3.21875,6.03125 3.203125,6.046875 3.1875,6.03125 3.171875,6.046875 3.171875,6.0625 3.171875,6.046875 3.1875,6.03125 3.203125,6.046875 3.203125,6.078125 3.1875,6.09375 3.1875,6.140625 3.171875,6.15625 3.171875,6.203125 3.15625,6.21875 3.15625,6.265625 3.140625,6.28125 3.125,6.265625 3.125,6.25 3.125,6.265625 3.140625,6.28125 3.140625,6.328125 3.125,6.34375 3.125,6.40625 3.109375,6.421875 3.109375,6.484375 3.09375,6.5 3.09375,6.5625 3.078125,6.578125 3.078125,6.65625 3.0625,6.671875 3.0625,6.75 3.046875,6.765625 3.03125,6.75 3.03125,6.765625 3.015625,6.78125 3.0,6.78125 3.015625,6.796875 3.015625,6.8125 3.03125,6.828125 3.015625,6.84375 3.015625,6.859375 3.0,6.875 3.015625,6.875 3.015625,6.84375 3.03125,6.828125 3.046875,6.84375 3.046875,6.890625 3.03125,6.90625 3.03125,7.03125 3.015625,7.046875 3.0,7.03125 3.0,7.015625 3.0,7.03125 3.015625,7.046875 3.015625,7.078125 3.0,7.09375 3.015625,7.109375 3.015625,7.328125 3.0,7.34375 3.0,7.625 3.015625,7.640625 3.0,7.65625 3.015625,7.671875 3.015625,7.90625 3.0,7.921875 3.03125,7.953125 3.03125,8.109375 3.046875,8.125 3.046875,8.203125 3.03125,8.21875 3.015625,8.203125 3.015625,8.171875 3.0,8.15625 3.015625,8.171875 3.015625,8.21875 3.03125,8.21875 3.046875,8.234375 3.03125,8.25 3.015625,8.25 3.015625,8.265625 3.0,8.28125 3.015625,8.265625 3.03125,8.265625 3.03125,8.25 3.046875,8.234375 3.0625,8.25 3.0625,8.328125 3.078125,8.34375 3.078125,8.421875 3.0625,8.4375 3.078125,8.421875 3.09375,8.4375 3.09375,8.5 3.109375,8.515625 3.109375,8.578125 3.125,8.59375 3.125,8.640625 3.140625,8.65625 3.140625,8.71875 3.125,8.734375 3.140625,8.71875 3.15625,8.734375 3.15625,8.765625 3.140625,8.78125 3.140625,8.796875 3.140625,8.78125 3.15625,8.765625 3.171875,8.78125 3.171875,8.84375 3.15625,8.859375 3.15625,8.875 3.15625,8.859375 3.171875,8.84375 3.1875,8.859375 3.1875,8.890625 3.203125,8.90625 3.203125,8.921875 3.1875,8.9375 3.203125,8.9375 3.21875,8.953125 3.21875,9.0 3.234375,9.015625 3.234375,9.046875 3.25,9.0625 3.25,9.09375 3.265625,9.109375 3.25,9.125 3.25,9.1875 3.25,9.15625 3.265625,9.140625 3.28125,9.15625 3.28125,9.1875 3.296875,9.203125 3.296875,9.234375 3.28125,9.25 3.265625,9.234375 3.265625,9.21875 3.265625,9.234375 3.28125,9.25 3.296875,9.234375 3.3125,9.25 3.3125,9.265625 3.328125,9.28125 3.328125,9.3125 3.34375,9.328125 3.34375,9.34375 3.359375,9.359375 3.359375,9.390625 3.375,9.40625 3.375,9.421875 3.390625,9.4375 3.390625,9.453125 3.40625,9.46875 3.40625,9.5 3.421875,9.515625 3.421875,9.53125 3.390625,9.5625 3.421875,9.53125 3.4375,9.546875 3.4375,9.5625 3.421875,9.578125 3.4375,9.5625 3.453125,9.578125 3.453125,9.59375 3.46875,9.609375 3.46875,9.625 3.484375,9.640625 3.484375,9.671875 3.515625,9.703125 3.515625,9.71875 3.53125,9.734375 3.53125,9.765625 3.546875,9.78125 3.53125,9.796875 3.515625,9.796875 3.5,9.78125 3.5,9.75 3.5,9.8125 3.515625,9.828125 3.53125,9.828125 3.5625,9.859375 3.578125,9.84375 3.59375,9.859375 3.59375,9.875 3.609375,9.890625 3.609375,9.90625 3.640625,9.9375 3.640625,9.953125 3.625,9.96875 3.640625,9.953125 3.65625,9.96875 3.65625,9.984375 3.671875,10.0 3.671875,10.015625 3.65625,10.03125 3.65625,10.046875 3.65625,10.03125 3.671875,10.015625 3.6875,10.03125 3.6875,10.046875 3.703125,10.0625 3.6875,10.078125 3.671875,10.078125 3.6875,10.09375 3.6875,10.078125 3.703125,10.0625 3.71875,10.078125 3.71875,10.09375 3.75,10.125 3.75,10.140625 3.765625,10.15625 3.765625,10.171875 3.796875,10.203125 3.796875,10.21875 3.78125,10.234375 3.796875,10.21875 3.828125,10.25 3.828125,10.265625 3.859375,10.296875 3.859375,10.3125 3.890625,10.34375 3.890625,10.359375 3.90625,10.375 3.890625,10.390625 3.90625,10.375 3.921875,10.390625 3.921875,10.40625 3.90625,10.421875 3.921875,10.40625 3.953125,10.4375 3.9375,10.453125 3.953125,10.4375 3.96875,10.453125 3.96875,10.46875 4.015625,10.515625 4.0,10.53125 4.015625,10.546875 4.0,10.5625 4.015625,10.5625 4.03125,10.578125 4.046875,10.5625 4.078125,10.59375 4.0625,10.609375 4.03125,10.609375 4.078125,10.609375 4.15625,10.6875 4.15625,10.703125 4.234375,10.78125 4.234375,10.796875 4.28125,10.84375 4.265625,10.859375 4.28125,10.84375 4.328125,10.890625 4.3125,10.90625 4.328125,10.890625 4.40625,10.96875 4.390625,10.984375 4.390625,11.0 4.390625,10.984375 4.40625,10.96875 4.53125,11.09375 4.515625,11.109375 4.53125,11.09375 4.578125,11.140625 4.5625,11.15625 4.5625,11.171875 4.5625,11.15625 4.578125,11.140625 4.65625,11.21875 4.640625,11.234375 4.65625,11.21875 4.671875,11.21875 4.6875,11.234375 4.6875,11.25 4.703125,11.25 4.71875,11.265625 4.71875,11.28125 4.734375,11.28125 4.765625,11.3125 4.75,11.328125 4.765625,11.34375 4.765625,11.359375 4.78125,11.375 4.765625,11.390625 4.78125,11.375 4.796875,11.390625 4.796875,11.40625 4.765625,11.4375 4.75,11.421875 4.765625,11.4375 4.765625,11.453125 4.75,11.46875 4.75,11.484375 4.734375,11.5 4.734375,11.515625 4.71875,11.53125 4.71875,11.546875 4.703125,11.5625 4.703125,11.578125 4.6875,11.59375 4.6875,11.625 4.671875,11.640625 4.671875,11.65625 4.65625,11.671875 4.640625,11.671875 4.65625,11.6875 4.65625,11.703125 4.640625,11.71875 4.640625,11.765625 4.625,11.78125 4.625,11.828125 4.609375,11.84375 4.609375,11.921875 4.59375,11.9375 4.59375,12.03125 4.578125,12.046875 4.578125,12.140625 4.5625,12.15625 4.515625,12.109375 4.546875,12.140625 4.53125,12.15625 4.546875,12.140625 4.5625,12.15625 4.5625,12.265625 4.546875,12.28125 4.515625,12.25 4.53125,12.234375 4.515625,12.25 4.5,12.25 4.515625,12.265625 4.53125,12.265625 4.546875,12.28125 4.546875,12.390625 4.53125,12.40625 4.53125,12.515625 4.515625,12.53125 4.5,12.515625 4.5,12.484375 4.5,12.5625 4.515625,12.578125 4.515625,12.65625 4.5,12.671875 4.5,12.78125 4.484375,12.796875 4.484375,12.921875 4.46875,12.9375 4.46875,13.078125 4.453125,13.09375 4.453125,13.109375 4.46875,13.125 4.46875,13.265625 4.484375,13.28125 4.484375,13.3125 4.5,13.328125 4.5,13.34375 4.515625,13.359375 4.5,13.375 4.515625,13.375 4.53125,13.390625 4.515625,13.40625 4.5,13.40625 4.515625,13.40625 4.53125,13.390625 4.546875,13.40625 4.546875,13.421875 4.5625,13.4375 4.546875,13.453125 4.546875,13.46875 4.546875,13.453125 4.5625,13.4375 4.59375,13.46875 4.578125,13.484375 4.59375,13.46875 4.609375,13.484375 4.625,13.484375 4.640625,13.5 4.625,13.515625 4.640625,13.53125 4.625,13.546875 4.640625,13.53125 4.65625,13.546875 4.640625,13.53125 4.65625,13.515625 4.671875,13.515625 4.6875,13.53125 4.703125,13.53125 4.71875,13.546875 4.734375,13.546875 4.75,13.5625 4.8125,13.5625 4.828125,13.578125 8.859375,13.578125 8.875,13.59375 8.875,13.609375 8.90625,13.609375 8.890625,13.609375 8.875,13.59375 8.890625,13.578125 11.03125,13.578125 11.046875,13.59375 11.03125,13.609375 11.046875,13.609375 11.046875,13.59375 11.0625,13.578125 11.109375,13.578125 11.140625,13.609375 11.15625,13.609375 11.140625,13.609375 11.125,13.59375 11.140625,13.578125 11.171875,13.578125 11.1875,13.5625 11.21875,13.5625 11.234375,13.578125 11.21875,13.5625 11.234375,13.546875 11.265625,13.546875 11.28125,13.5625 11.265625,13.578125 11.28125,13.5625 11.265625,13.546875 11.28125,13.53125 11.296875,13.53125 11.3125,13.515625 11.328125,13.515625 11.359375,13.484375 11.375,13.484375 11.4375,13.421875 11.4375,13.40625 11.46875,13.375 11.46875,13.359375 11.484375,13.34375 11.484375,13.328125 11.5,13.3125 11.515625,13.328125 11.5,13.3125 11.5,13.28125 11.515625,13.265625 11.515625,13.015625 11.5,13.0 11.515625,12.984375 11.5,12.96875 11.5,12.828125 11.484375,12.8125 11.484375,12.6875 11.46875,12.671875 11.46875,12.5625 11.453125,12.546875 11.453125,12.4375 11.4375,12.421875 11.4375,12.296875 11.421875,12.28125 11.421875,12.15625 11.40625,12.140625 11.40625,12.03125 11.390625,12.015625 11.390625,11.9375 11.40625,11.921875 11.390625,11.9375 11.375,11.921875 11.375,11.875 11.359375,11.859375 11.359375,11.796875 11.34375,11.78125 11.34375,11.765625 11.359375,11.75 11.328125,11.71875 11.328125,11.703125 11.3125,11.6875 11.3125,11.65625 11.296875,11.640625 11.296875,11.609375 11.3125,11.59375 11.3125,11.5625 11.3125,11.59375 11.296875,11.609375 11.28125,11.59375 11.28125,11.578125 11.265625,11.5625 11.265625,11.546875 11.25,11.53125 11.25,11.515625 11.234375,11.5 11.234375,11.484375 11.21875,11.46875 11.21875,11.453125 11.203125,11.4375 11.203125,11.421875 11.21875,11.40625 11.234375,11.421875 11.21875,11.40625 11.203125,11.421875 11.171875,11.390625 11.171875,11.359375 11.1875,11.34375 11.203125,11.34375 11.21875,11.359375 11.21875,11.375 11.21875,11.359375 11.203125,11.34375 11.296875,11.25 11.3125,11.25 11.34375,11.21875 11.359375,11.234375 11.34375,11.21875 11.390625,11.171875 11.40625,11.1875 11.390625,11.171875 11.4375,11.125 11.453125,11.125 11.46875,11.109375 11.484375,11.109375 11.484375,11.09375 11.578125,11.0 11.59375,11.015625 11.59375,11.03125 11.609375,11.03125 11.578125,11.0 11.71875,10.859375 11.734375,10.859375 11.734375,10.828125 11.84375,10.71875 11.859375,10.734375 11.84375,10.71875 11.84375,10.703125 11.921875,10.625 11.921875,10.609375 11.984375,10.546875 11.984375,10.53125 12.03125,10.484375 12.03125,10.46875 12.078125,10.421875 12.078125,10.40625 12.125,10.359375 12.125,10.34375 12.15625,10.3125 12.15625,10.296875 12.1875,10.265625 12.1875,10.25 12.21875,10.21875 12.234375,10.234375 12.21875,10.21875 12.21875,10.203125 12.25,10.171875 12.25,10.15625 12.265625,10.140625 12.265625,10.125 12.296875,10.09375 12.296875,10.078125 12.3125,10.0625 12.3125,10.046875 12.328125,10.03125 12.34375,10.046875 12.328125,10.03125 12.34375,10.015625 12.34375,10.0 12.359375,9.984375 12.359375,9.96875 12.375,9.953125 12.375,9.9375 12.390625,9.921875 12.390625,9.90625 12.421875,9.875 12.421875,9.859375 12.4375,9.84375 12.4375,9.828125 12.453125,9.8125 12.453125,9.796875 12.46875,9.78125 12.46875,9.765625 12.484375,9.75 12.484375,9.734375 12.5,9.71875 12.5,9.703125 12.515625,9.6875 12.515625,9.671875 12.53125,9.65625 12.53125,9.640625 12.546875,9.625 12.546875,9.609375 12.5625,9.59375 12.5625,9.578125 12.578125,9.5625 12.578125,9.546875 12.59375,9.53125 12.59375,9.5 12.609375,9.484375 12.609375,9.46875 12.625,9.453125 12.625,9.4375 12.640625,9.421875 12.640625,9.390625 12.65625,9.375 12.65625,9.359375 12.671875,9.34375 12.671875,9.3125 12.6875,9.296875 12.6875,9.28125 12.703125,9.265625 12.703125,9.234375 12.71875,9.21875 12.71875,9.203125 12.734375,9.1875 12.734375,9.15625 12.75,9.140625 12.75,9.109375 12.765625,9.09375 12.765625,9.0625 12.78125,9.046875 12.78125,9.015625 12.796875,9.0 12.796875,8.96875 12.8125,8.953125 12.8125,8.90625 12.828125,8.890625 12.828125,8.859375 12.84375,8.84375 12.859375,8.859375 12.84375,8.84375 12.84375,8.796875 12.859375,8.78125 12.859375,8.75 12.875,8.734375 12.875,8.671875 12.890625,8.65625 12.890625,8.609375 12.90625,8.59375 12.921875,8.609375 12.9375,8.609375 12.9375,8.59375 12.921875,8.609375 12.90625,8.59375 12.90625,8.546875 12.921875,8.53125 12.921875,8.453125 12.9375,8.4375 12.9375,8.375 12.953125,8.359375 12.953125,8.28125 12.96875,8.265625 12.96875,8.171875 12.984375,8.15625 12.984375,8.03125 13.0,8.015625 13.0,7.828125 13.015625,7.8125 13.015625,7.234375 13.0,7.21875 13.0,7.03125 12.984375,7.015625 12.984375,6.875 12.96875,6.859375 12.96875,6.765625 12.984375,6.75 12.984375,6.703125 12.984375,6.75 12.96875,6.765625 12.953125,6.75 12.953125,6.671875 12.96875,6.65625 12.984375,6.671875 12.96875,6.65625 12.953125,6.65625 12.9375,6.640625 12.9375,6.578125 12.921875,6.5625 12.921875,6.484375 12.90625,6.46875 12.90625,6.40625 12.890625,6.390625 12.890625,6.359375 12.875,6.34375 12.875,6.28125 12.859375,6.265625 12.859375,6.21875 12.84375,6.203125 12.84375,6.171875 12.828125,6.15625 12.828125,6.109375 12.84375,6.09375 12.84375,6.078125 12.84375,6.09375 12.828125,6.109375 12.8125,6.09375 12.8125,6.0625 12.796875,6.046875 12.796875,6.0 12.78125,5.984375 12.78125,5.953125 12.765625,5.9375 12.765625,5.90625 12.75,5.890625 12.75,5.859375 12.734375,5.84375 12.734375,5.8125 12.71875,5.796875 12.71875,5.78125 12.703125,5.765625 12.703125,5.734375 12.6875,5.71875 12.6875,5.6875 12.671875,5.671875 12.671875,5.640625 12.65625,5.625 12.65625,5.609375 12.640625,5.59375 12.640625,5.578125 12.625,5.5625 12.625,5.53125 12.609375,5.515625 12.609375,5.5 12.59375,5.484375 12.59375,5.46875 12.578125,5.453125 12.578125,5.421875 12.5625,5.40625 12.5625,5.390625 12.546875,5.375 12.546875,5.359375 12.5625,5.34375 12.546875,5.359375 12.53125,5.34375 12.53125,5.328125 12.515625,5.3125 12.515625,5.296875 12.5,5.28125 12.5,5.265625 12.484375,5.25 12.484375,5.234375 12.46875,5.21875 12.46875,5.1875 12.484375,5.171875 12.46875,5.1875 12.453125,5.171875 12.453125,5.15625 12.484375,5.125 12.46875,5.109375 12.484375,5.125 12.453125,5.15625 12.421875,5.125 12.421875,5.109375 12.40625,5.09375 12.40625,5.078125 12.421875,5.0625 12.40625,5.078125 12.390625,5.0625 12.390625,5.046875 12.375,5.03125 12.375,5.015625 12.34375,4.984375 12.34375,4.96875 12.328125,4.953125 12.328125,4.9375 12.34375,4.921875 12.328125,4.9375 12.3125,4.921875 12.3125,4.90625 12.296875,4.890625 12.296875,4.875 12.265625,4.84375 12.265625,4.828125 12.25,4.8125 12.25,4.796875 12.21875,4.765625 12.234375,4.75 12.234375,4.734375 12.21875,4.75 12.1875,4.71875 12.1875,4.703125 12.203125,4.6875 12.1875,4.703125 12.15625,4.671875 12.15625,4.65625 12.125,4.625 12.125,4.609375 12.09375,4.578125 12.109375,4.5625 12.09375,4.578125 12.078125,4.5625 12.078125,4.546875 12.09375,4.53125 12.078125,4.546875 12.03125,4.5 12.03125,4.484375 12.015625,4.46875 12.03125,4.453125 12.015625,4.46875 11.984375,4.4375 11.984375,4.421875 11.953125,4.390625 11.96875,4.375 11.984375,4.375 11.96875,4.375 11.953125,4.390625 11.9375,4.375 11.9375,4.359375 11.875,4.296875 11.875,4.28125 11.859375,4.265625 11.859375,4.25 11.84375,4.25 11.828125,4.234375 11.828125,4.21875 11.84375,4.203125 11.828125,4.203125 11.8125,4.21875 11.765625,4.171875 11.765625,4.15625 11.75,4.140625 11.765625,4.125 11.75,4.140625 11.71875,4.109375 11.734375,4.09375 11.71875,4.109375 11.625,4.015625 11.625,4.0 11.609375,3.984375 11.609375,3.96875 11.59375,3.96875 11.53125,3.90625 11.546875,3.890625 11.53125,3.875 11.515625,3.890625 11.4375,3.8125 11.421875,3.8125 11.390625,3.78125 11.421875,3.75 11.40625,3.765625 11.390625,3.75 11.375,3.765625 11.28125,3.671875 11.265625,3.671875 11.203125,3.609375 11.1875,3.609375 11.140625,3.5625 11.15625,3.546875 11.140625,3.53125 11.125,3.546875 11.109375,3.546875 11.078125,3.515625 11.09375,3.5 11.109375,3.5 11.09375,3.5 11.078125,3.515625 11.046875,3.484375 11.03125,3.484375 10.984375,3.4375 10.96875,3.4375 10.953125,3.421875 10.96875,3.40625 10.984375,3.40625 10.96875,3.40625 10.953125,3.421875 10.921875,3.390625 10.90625,3.390625 10.875,3.359375 10.859375,3.359375 10.84375,3.34375 10.859375,3.328125 10.828125,3.296875 10.84375,3.28125 10.859375,3.28125 10.84375,3.28125 10.828125,3.296875 10.8125,3.296875 10.796875,3.28125 10.8125,3.296875 10.796875,3.3125 10.78125,3.3125 10.734375,3.265625 10.734375,3.25 10.71875,3.265625 10.703125,3.25 10.6875,3.25 10.65625,3.21875 10.640625,3.21875 10.609375,3.1875 10.59375,3.1875 10.578125,3.171875 10.59375,3.15625 10.609375,3.15625 10.59375,3.15625 10.578125,3.140625 10.59375,3.125 10.578125,3.125 10.578125,3.140625 10.59375,3.15625 10.578125,3.171875 10.5625,3.171875 10.53125,3.140625 10.546875,3.125 10.53125,3.125 10.515625,3.140625 10.5,3.125 10.484375,3.125 10.46875,3.109375 10.453125,3.109375 10.4375,3.09375 10.421875,3.09375 10.40625,3.078125 10.390625,3.078125 10.375,3.0625 10.390625,3.046875 10.375,3.03125 10.390625,3.046875 10.375,3.0625 10.359375,3.0625 10.328125,3.03125 10.34375,3.015625 10.34375,3.0 10.34375,3.015625 10.328125,3.03125 10.3125,3.03125 10.296875,3.015625 10.3125,3.0 10.296875,3.015625 10.28125,3.015625 10.265625,3.0 10.25,3.0 10.234375,2.984375 10.21875,2.984375 10.203125,2.96875 10.1875,2.96875 10.171875,2.953125 10.140625,2.953125 10.125,2.9375 10.109375,2.9375 10.09375,2.921875 10.078125,2.921875 10.0625,2.90625 10.078125,2.890625 10.0625,2.90625 10.03125,2.90625 10.015625,2.890625 10.0,2.890625 9.984375,2.875 9.96875,2.875 9.953125,2.859375 9.921875,2.859375 9.90625,2.84375 9.890625,2.84375 9.875,2.828125 9.84375,2.828125 9.828125,2.8125 9.84375,2.796875 9.828125,2.78125 9.84375,2.796875 9.828125,2.8125 9.796875,2.8125 9.78125,2.796875 9.765625,2.796875 9.75,2.78125 9.765625,2.765625 9.78125,2.765625 9.765625,2.765625 9.75,2.78125 9.703125,2.78125 9.6875,2.765625 9.671875,2.765625 9.65625,2.75 9.609375,2.75 9.59375,2.734375 9.5625,2.734375 9.546875,2.71875 9.515625,2.71875 9.5,2.703125 9.46875,2.703125 9.453125,2.6875 9.40625,2.6875 9.390625,2.671875 9.359375,2.671875 9.34375,2.65625 9.28125,2.65625 9.265625,2.640625 9.28125,2.625 9.265625,2.640625 9.234375,2.640625 9.21875,2.625 9.15625,2.625 9.140625,2.609375 9.09375,2.609375 9.078125,2.59375 9.0,2.59375 8.984375,2.578125 8.921875,2.578125 8.90625,2.5625 8.828125,2.5625 8.8125,2.546875 8.71875,2.546875 8.703125,2.53125 8.59375,2.53125 8.578125,2.515625 8.59375,2.5 8.609375,2.5 8.59375,2.5 8.578125,2.515625 8.5625,2.5 8.546875,2.515625 8.53125,2.515625 8.515625,2.5 8.5,2.515625 8.484375,2.515625 8.46875,2.5 8.453125,2.515625 8.4375,2.5 8.15625,2.5 8.140625,2.484375" /></svg>