<svg baseProfile="full" height="32" version="1.1" width="32" xmlns="http://www.w3.org/2000/svg" xmlns:ev="http://www.w3.org/2001/xml-events" xmlns:xlink="http://www.w3.org/1999/xlink"><defs /><polygon fill="black" points="22.59375,27.21875" /><polygon fill="black" points="21.96875,27.21875 22.0,27.21875" /><polygon fill="black" points="21.875,27.21875" /><polygon fill="black" points="21.59375,27.21875 21.8125,27.21875" /><polygon fill="black" points="21.46875,27.21875 21.53125,27.21875" /><polygon fill="black" points="21.375,27.21875 21.40625,27.21875" /><polygon fill="black" points="21.25,27.21875 21.3125,27.21875" /><polygon fill="black" points="21.15625,27.21875" /><polygon fill="black" points="21.0,27.21875 21.0625,27.21875" /><polygon fill="black" points="20.90625,27.21875 20.9375,27.21875" /><polygon fill="black" points="20.8125,27.21875" /><polygon fill="black" points="20.71875,27.21875 20.75,27.21875" /><polygon fill="black" points="20.65625,27.21875" /><polygon fill="black" points="20.5,27.21875" /><polygon fill="black" points="20.40625,27.21875" /><polygon fill="black" points="20.21875,27.21875 20.3125,27.21875" /><polygon fill="black" points="20.09375,27.21875 20.15625,27.21875" /><polygon fill="black" points="20.0,27.21875 20.03125,27.21875" /><polygon fill="black" points="19.90625,27.21875" /><polygon fill="black" points="19.75,27.21875 19.8125,27.21875" /><polygon fill="black" points="19.625,27.21875 19.65625,27.21875" /><polygon fill="black" points="19.46875,27.21875 19.5625,27.21875" /><polygon fill="black" points="19.25,27.21875 19.40625,27.21875" /><polygon fill="black" points="19.125,27.21875 19.15625,27.21875" /><polygon fill="black" points="18.96875,27.21875 19.0625,27.21875" /><polygon fill="black" points="18.875,27.21875 18.90625,27.21875" /><polygon fill="black" points="18.625,27.21875 18.8125,27.21875" /><polygon fill="black" points="18.21875,27.21875 18.5,27.21875" /><polygon fill="black" points="18.125,27.21875 18.15625,27.21875" /><polygon fill="black" points="18.0,27.21875 18.0625,27.21875" /><polygon fill="black" points="17.90625,27.21875 17.9375,27.21875" /><polygon fill="black" points="17.65625,27.21875 17.6875,27.21875" /><polygon fill="black" points="17.5,27.21875 17.53125,27.21875" /><polygon fill="black" points="17.34375,27.21875 17.40625,27.21875" /><polygon fill="black" points="17.15625,27.21875 17.28125,27.21875" /><polygon fill="black" points="16.96875,27.21875 17.09375,27.21875" /><polygon fill="black" points="16.90625,27.21875" /><polygon fill="black" points="16.8125,27.21875" /><polygon fill="black" points="16.71875,27.21875" /><polygon fill="black" points="16.625,27.21875 16.65625,27.21875" /><polygon fill="black" points="16.46875,27.21875 16.5625,27.21875" /><polygon fill="black" points="16.375,27.21875 16.40625,27.21875" /><polygon fill="black" points="16.25,27.21875 16.28125,27.21875" /><polygon fill="black" points="16.15625,27.21875" /><polygon fill="black" points="15.75,27.21875 16.03125,27.21875" /><polygon fill="black" points="15.625,27.21875 15.65625,27.21875" /><polygon fill="black" points="15.5,27.21875 15.5625,27.21875" /><polygon fill="black" points="15.40625,27.21875" /><polygon fill="black" points="15.25,27.21875 15.34375,27.21875" /><polygon fill="black" points="15.125,27.21875 15.15625,27.21875" /><polygon fill="black" points="14.96875,27.21875 15.03125,27.21875" /><polygon fill="black" points="14.875,27.21875 14.90625,27.21875" /><polygon fill="black" points="14.75,27.21875 14.78125,27.21875" /><polygon fill="black" points="14.625,27.21875 14.65625,27.21875" /><polygon fill="black" points="14.5,27.21875 14.5625,27.21875" /><polygon fill="black" points="14.34375,27.21875 14.375,27.21875" /><polygon fill="black" points="14.25,27.21875 14.28125,27.21875" /><polygon fill="black" points="14.125,27.21875 14.15625,27.21875" /><polygon fill="black" points="14.0,27.21875" /><polygon fill="black" points="13.90625,27.21875" /><polygon fill="black" points="13.71875,27.21875 13.84375,27.21875" /><polygon fill="black" points="13.625,27.21875 13.65625,27.21875" /><polygon fill="black" points="13.5,27.21875 13.5625,27.21875" /><polygon fill="black" points="13.375,27.21875 13.40625,27.21875" /><polygon fill="black" points="13.25,27.21875 13.3125,27.21875" /><polygon fill="black" points="13.15625,27.21875" /><polygon fill="black" points="13.0625,27.21875" /><polygon fill="black" points="13.0,27.21875" /><polygon fill="black" points="12.90625,27.21875" /><polygon fill="black" points="12.84375,27.21875" /><polygon fill="black" points="12.75,27.21875 12.78125,27.21875" /><polygon fill="black" points="12.5625,27.21875" /><polygon fill="black" points="12.46875,27.21875" /><polygon fill="black" points="12.40625,27.21875" /><polygon fill="black" points="12.28125,27.21875" /><polygon fill="black" points="12.0625,27.21875 12.15625,27.21875" /><polygon fill="black" points="11.90625,27.21875 12.0,27.21875" /><polygon fill="black" points="11.75,27.21875 11.8125,27.21875" /><polygon fill="black" points="11.5,27.21875 11.59375,27.21875" /><polygon fill="black" points="11.40625,27.21875" /><polygon fill="black" points="11.3125,27.21875" /><polygon fill="black" points="11.21875,27.21875 11.25,27.21875" /><polygon fill="black" points="11.15625,27.21875" /><polygon fill="black" points="11.09375,27.21875" /><polygon fill="black" points="11.0,27.21875 11.03125,27.21875" /><polygon fill="black" points="10.875,27.21875 10.90625,27.21875" /><polygon fill="black" points="10.75,27.21875 10.8125,27.21875" /><polygon fill="black" points="10.65625,27.21875" /><polygon fill="black" points="10.5,27.21875 10.53125,27.21875" /><polygon fill="black" points="10.3125,27.21875 10.40625,27.21875" /><polygon fill="black" points="10.25,27.21875" /><polygon fill="black" points="10.15625,27.21875" /><polygon fill="black" points="10.0,27.21875" /><polygon fill="black" points="9.875,27.21875 9.90625,27.21875" /><polygon fill="black" points="9.75,27.21875" /><polygon fill="black" points="9.5,27.1875 9.5,27.21875 9.53125,27.1875" /><polygon fill="black" points="9.4375,27.15625" /><polygon fill="black" points="22.65625,27.09375" /><polygon fill="black" points="22.875,26.96875" /><polygon fill="black" points="9.03125,26.875" /><polygon fill="black" points="8.875,26.46875" /><polygon fill="black" points="8.84375,26.28125 8.875,26.3125" /><polygon fill="black" points="23.09375,26.15625" /><polygon fill="black" points="8.875,26.09375" /><polygon fill="black" points="23.0625,25.84375" /><polygon fill="black" points="22.96875,24.9375" /><polygon fill="black" points="9.0,24.875" /><polygon fill="black" points="9.03125,24.71875 9.0,24.75" /><polygon fill="black" points="9.0,24.59375 9.03125,24.625 9.03125,24.65625 9.03125,24.59375" /><polygon fill="black" points="9.0625,24.375 9.0625,24.40625" /><polygon fill="black" points="9.0625,24.0" /><polygon fill="black" points="9.125,23.96875" /><polygon fill="black" points="22.8125,23.78125" /><polygon fill="black" points="22.65625,23.25" /><polygon fill="black" points="9.3125,23.21875" /><polygon fill="black" points="22.71875,23.15625" /><polygon fill="black" points="22.5625,23.03125" /><polygon fill="black" points="9.3125,23.03125" /><polygon fill="black" points="22.84375,22.46875" /><polygon fill="black" points="22.875,22.40625" /><polygon fill="black" points="22.90625,22.3125" /><polygon fill="black" points="23.125,22.21875" /><polygon fill="black" points="23.0625,22.21875" /><polygon fill="black" points="8.90625,22.15625 8.90625,22.1875 8.9375,22.15625" /><polygon fill="black" points="8.6875,21.96875" /><polygon fill="black" points="23.34375,21.9375" /><polygon fill="black" points="8.5,21.84375" /><polygon fill="black" points="23.71875,21.71875" /><polygon fill="black" points="23.53125,21.71875" /><polygon fill="black" points="8.25,21.53125" /><polygon fill="black" points="8.28125,21.46875" /><polygon fill="black" points="8.25,21.40625" /><polygon fill="black" points="7.6875,20.71875" /><polygon fill="black" points="24.59375,20.40625" /><polygon fill="black" points="7.25,20.21875" /><polygon fill="black" points="24.875,19.9375" /><polygon fill="black" points="24.84375,19.84375" /><polygon fill="black" points="24.9375,19.78125" /><polygon fill="black" points="24.9375,19.71875" /><polygon fill="black" points="25.125,19.3125" /><polygon fill="black" points="6.75,19.21875" /><polygon fill="black" points="6.75,19.03125 6.75,19.0625" /><polygon fill="black" points="25.40625,18.71875" /><polygon fill="black" points="6.625,18.6875" /><polygon fill="black" points="25.4375,18.59375" /><polygon fill="black" points="6.59375,18.59375 6.5625,18.625 6.59375,18.625" /><polygon fill="black" points="25.6875,18.09375" /><polygon fill="black" points="25.625,18.0625" /><polygon fill="black" points="25.65625,17.96875" /><polygon fill="black" points="6.375,17.96875" /><polygon fill="black" points="6.28125,17.96875 6.3125,17.96875" /><polygon fill="black" points="6.25,17.875" /><polygon fill="black" points="25.6875,17.84375 25.6875,17.875" /><polygon fill="black" points="25.71875,17.78125" /><polygon fill="black" points="25.90625,16.96875" /><polygon fill="black" points="6.125,16.9375 6.125,16.96875" /><polygon fill="black" points="6.03125,16.84375" /><polygon fill="black" points="25.96875,16.71875" /><polygon fill="black" points="6.09375,16.71875 6.09375,16.78125" /><polygon fill="black" points="6.0625,16.65625" /><polygon fill="black" points="6.0,16.15625" /><polygon fill="black" points="6.0,16.0625" /><polygon fill="black" points="6.0,15.9375 6.0,16.0" /><polygon fill="black" points="26.09375,15.40625" /><polygon fill="black" points="26.1875,15.09375" /><polygon fill="black" points="26.09375,14.90625" /><polygon fill="black" points="6.0,13.90625" /><polygon fill="black" points="25.9375,13.25" /><polygon fill="black" points="6.09375,13.1875 6.0625,13.21875" /><polygon fill="black" points="6.125,13.0625" /><polygon fill="black" points="25.90625,12.71875" /><polygon fill="black" points="6.28125,12.28125 6.25,12.3125 6.28125,12.34375 6.28125,12.375 6.28125,12.34375 6.25,12.3125" /><polygon fill="black" points="6.25,12.03125" /><polygon fill="black" points="6.53125,11.53125 6.5,11.5625" /><polygon fill="black" points="25.46875,11.5" /><polygon fill="black" points="25.46875,11.40625" /><polygon fill="black" points="25.40625,11.3125" /><polygon fill="black" points="6.625,11.28125" /><polygon fill="black" points="25.4375,11.25" /><polygon fill="black" points="6.53125,11.25" /><polygon fill="black" points="25.3125,11.09375" /><polygon fill="black" points="6.75,10.78125" /><polygon fill="black" points="7.5625,9.375" /><polygon fill="black" points="7.6875,9.25" /><polygon fill="black" points="7.75,9.125" /><polygon fill="black" points="23.875,8.5 23.84375,8.53125" /><polygon fill="black" points="8.34375,8.375 8.375,8.375" /><polygon fill="black" points="8.25,8.34375" /><polygon fill="black" points="8.3125,8.28125" /><polygon fill="black" points="23.71875,8.25" /><polygon fill="black" points="8.5625,8.15625" /><polygon fill="black" points="23.4375,8.125" /><polygon fill="black" points="23.4375,8.0" /><polygon fill="black" points="8.78125,7.84375" /><polygon fill="black" points="23.21875,7.78125" /><polygon fill="black" points="8.75,7.75 8.78125,7.75" /><polygon fill="black" points="9.1875,7.5" /><polygon fill="black" points="9.09375,7.5" /><polygon fill="black" points="9.46875,7.28125 9.4375,7.3125" /><polygon fill="black" points="22.21875,6.84375" /><polygon fill="black" points="10.0,6.8125 10.0,6.84375 10.03125,6.8125" /><polygon fill="black" points="10.125,6.75" /><polygon fill="black" points="10.0625,6.75" /><polygon fill="black" points="10.25,6.59375" /><polygon fill="black" points="10.40625,6.53125" /><polygon fill="black" points="10.3125,6.53125" /><polygon fill="black" points="21.71875,6.5" /><polygon fill="black" points="10.71875,6.375" /><polygon fill="black" points="10.8125,6.3125" /><polygon fill="black" points="11.09375,6.15625" /><polygon fill="black" points="20.875,6.09375" /><polygon fill="black" points="11.25,6.0625 11.21875,6.09375" /><polygon fill="black" points="20.78125,6.0" /><polygon fill="black" points="11.40625,6.0" /><polygon fill="black" points="11.59375,5.90625" /><polygon fill="black" points="11.5,5.84375" /><polygon fill="black" points="11.625,5.78125" /><polygon fill="black" points="11.5,5.78125" /><polygon fill="black" points="20.09375,5.75" /><polygon fill="black" points="11.9375,5.75" /><polygon fill="black" points="11.78125,5.75 11.8125,5.75" /><polygon fill="black" points="19.875,5.65625" /><polygon fill="black" points="12.28125,5.59375 12.3125,5.59375" /><polygon fill="black" points="12.375,5.5625" /><polygon fill="black" points="19.4375,5.5" /><polygon fill="black" points="12.4375,5.5 12.46875,5.53125 12.5,5.5 12.46875,5.53125" /><polygon fill="black" points="19.21875,5.40625" /><polygon fill="black" points="12.8125,5.40625 12.84375,5.40625" /><polygon fill="black" points="12.9375,5.375" /><polygon fill="black" points="19.03125,5.34375" /><polygon fill="black" points="13.0,5.34375" /><polygon fill="black" points="18.9375,5.25 18.90625,5.28125 18.9375,5.25 18.96875,5.25" /><polygon fill="black" points="18.8125,5.25 18.78125,5.28125 18.75,5.28125 18.78125,5.28125" /><polygon fill="black" points="18.6875,5.25" /><polygon fill="black" points="18.625,5.25" /><polygon fill="black" points="13.34375,5.25 13.375,5.25" /><polygon fill="black" points="18.34375,5.15625" /><polygon fill="black" points="13.78125,5.15625" /><polygon fill="black" points="18.09375,5.125 18.125,5.125" /><polygon fill="black" points="13.875,5.125" /><polygon fill="black" points="17.9375,5.09375" /><polygon fill="black" points="14.03125,5.09375 14.0625,5.09375" /><polygon fill="black" points="18.03125,5.03125" /><polygon fill="black" points="14.375,5.03125 14.40625,5.03125" /><polygon fill="black" points="17.28125,5.0 17.4375,5.0 17.46875,5.03125 17.46875,5.0" /><polygon fill="black" points="14.5,5.0 14.53125,5.0" /><polygon fill="black" points="13.96875,5.0" /><polygon fill="black" points="15.59375,4.96875 15.5625,5.0 14.9375,5.0 14.90625,5.03125 14.8125,5.03125 14.78125,5.0 14.625,5.0 14.6875,5.0 14.71875,5.03125 14.6875,5.0625 14.53125,5.0625 14.5,5.09375 14.3125,5.09375 14.28125,5.125 14.125,5.125 14.09375,5.15625 14.0,5.15625 13.96875,5.1875 13.84375,5.1875 13.8125,5.21875 13.6875,5.21875 13.65625,5.25 13.5625,5.25 13.53125,5.28125 13.46875,5.28125 13.4375,5.3125 13.34375,5.3125 13.3125,5.34375 13.21875,5.34375 13.1875,5.3125 13.21875,5.28125 13.21875,5.25 13.21875,5.28125 13.1875,5.3125 13.21875,5.34375 13.1875,5.375 13.125,5.375 13.09375,5.40625 13.0,5.40625 12.96875,5.4375 12.90625,5.4375 12.875,5.46875 12.8125,5.46875 12.78125,5.5 12.71875,5.5 12.6875,5.53125 12.625,5.53125 12.59375,5.5 12.625,5.53125 12.59375,5.5625 12.53125,5.5625 12.5,5.59375 12.46875,5.59375 12.4375,5.625 12.375,5.625 12.34375,5.65625 12.28125,5.65625 12.25,5.6875 12.21875,5.6875 12.1875,5.71875 12.15625,5.71875 12.125,5.75 12.0625,5.75 12.03125,5.78125 12.0,5.78125 11.96875,5.8125 11.90625,5.8125 11.875,5.84375 11.84375,5.84375 11.8125,5.875 11.78125,5.875 11.75,5.84375 11.78125,5.875 11.75,5.90625 11.71875,5.90625 11.6875,5.9375 11.65625,5.9375 11.625,5.96875 11.59375,5.96875 11.5625,6.0 11.5,6.0 11.4375,6.0625 11.40625,6.0625 11.375,6.09375 11.34375,6.09375 11.3125,6.0625 11.34375,6.09375 11.3125,6.125 11.28125,6.125 11.25,6.15625 11.21875,6.15625 11.1875,6.1875 11.15625,6.1875 11.125,6.21875 11.09375,6.21875 11.03125,6.28125 11.0,6.28125 10.96875,6.25 11.0,6.28125 10.96875,6.3125 10.9375,6.3125 10.90625,6.28125 10.9375,6.3125 10.875,6.375 10.84375,6.375 10.8125,6.40625 10.78125,6.40625 10.71875,6.46875 10.6875,6.46875 10.65625,6.5 10.625,6.5 10.59375,6.53125 10.5625,6.5 10.59375,6.53125 10.5625,6.5625 10.53125,6.5625 10.46875,6.5 10.53125,6.5625 10.46875,6.625 10.4375,6.625 10.375,6.6875 10.34375,6.6875 10.28125,6.75 10.25,6.75 10.21875,6.78125 10.1875,6.75 10.21875,6.78125 10.1875,6.8125 10.15625,6.8125 10.125,6.84375 10.09375,6.8125 10.125,6.84375 10.0625,6.90625 10.03125,6.90625 9.96875,6.96875 9.9375,6.96875 9.875,7.03125 9.84375,7.0 9.875,7.03125 9.8125,7.09375 9.78125,7.09375 9.75,7.0625 9.78125,7.03125 9.78125,7.0 9.78125,7.03125 9.75,7.0625 9.78125,7.09375 9.65625,7.21875 9.625,7.21875 9.5625,7.28125 9.53125,7.25 9.5625,7.28125 9.4375,7.40625 9.40625,7.40625 9.3125,7.5 9.25,7.5 9.25,7.53125 9.21875,7.5625 9.21875,7.59375 9.1875,7.625 9.15625,7.625 9.125,7.65625 9.0625,7.59375 9.09375,7.5625 9.125,7.5625 9.09375,7.5625 9.0625,7.59375 9.09375,7.625 9.0625,7.65625 9.09375,7.6875 9.0,7.78125 8.96875,7.75 8.90625,7.75 8.875,7.78125 8.90625,7.75 8.96875,7.8125 8.78125,8.0 8.75,8.0 8.75,8.03125 8.65625,8.125 8.625,8.09375 8.625,8.125 8.65625,8.15625 8.53125,8.28125 8.5,8.25 8.53125,8.28125 8.4375,8.375 8.4375,8.40625 8.25,8.59375 8.25,8.625 8.15625,8.71875 8.15625,8.75 8.125,8.78125 8.09375,8.75 8.125,8.78125 8.0625,8.84375 8.03125,8.8125 8.0625,8.84375 8.03125,8.875 8.03125,8.90625 7.9375,9.0 7.9375,9.03125 7.90625,9.0625 7.875,9.03125 7.84375,9.03125 7.875,9.03125 7.90625,9.0625 7.84375,9.125 7.8125,9.09375 7.84375,9.125 7.84375,9.15625 7.78125,9.21875 7.75,9.21875 7.78125,9.25 7.71875,9.3125 7.71875,9.34375 7.65625,9.40625 7.65625,9.4375 7.59375,9.5 7.59375,9.53125 7.53125,9.59375 7.5,9.5625 7.5,9.53125 7.53125,9.5 7.5,9.53125 7.5,9.5625 7.53125,9.59375 7.53125,9.625 7.5,9.65625 7.5,9.6875 7.4375,9.75 7.4375,9.78125 7.40625,9.8125 7.375,9.78125 7.375,9.75 7.34375,9.75 7.3125,9.78125 7.28125,9.78125 7.3125,9.8125 7.28125,9.84375 7.25,9.84375 7.28125,9.84375 7.3125,9.8125 7.3125,9.78125 7.34375,9.75 7.40625,9.8125 7.40625,9.84375 7.34375,9.90625 7.34375,9.9375 7.3125,9.96875 7.3125,10.0 7.28125,10.03125 7.25,10.0 7.25,9.9375 7.28125,9.90625 7.25,9.9375 7.25,10.03125 7.28125,10.0625 7.21875,10.125 7.21875,10.15625 7.1875,10.1875 7.1875,10.21875 7.15625,10.25 7.15625,10.28125 7.125,10.3125 7.125,10.34375 7.09375,10.375 7.09375,10.40625 7.0625,10.4375 7.03125,10.40625 7.03125,10.375 7.03125,10.40625 7.0625,10.4375 7.0625,10.46875 7.03125,10.5 7.0,10.46875 7.0,10.5 7.03125,10.53125 7.0,10.5625 7.0,10.59375 6.96875,10.625 6.96875,10.65625 6.9375,10.6875 6.9375,10.71875 6.90625,10.75 6.90625,10.78125 6.875,10.8125 6.84375,10.78125 6.8125,10.78125 6.84375,10.78125 6.875,10.8125 6.875,10.875 6.84375,10.90625 6.84375,10.9375 6.8125,10.96875 6.8125,11.0 6.78125,11.03125 6.78125,11.09375 6.75,11.125 6.75,11.15625 6.71875,11.1875 6.71875,11.21875 6.6875,11.25 6.6875,11.3125 6.65625,11.34375 6.65625,11.40625 6.625,11.4375 6.625,11.5 6.59375,11.53125 6.59375,11.5625 6.5625,11.59375 6.5625,11.65625 6.5,11.71875 6.53125,11.75 6.5,11.78125 6.5,11.84375 6.46875,11.875 6.46875,11.9375 6.4375,11.96875 6.4375,12.0625 6.40625,12.09375 6.375,12.0625 6.34375,12.09375 6.34375,12.125 6.34375,12.09375 6.375,12.0625 6.40625,12.09375 6.40625,12.15625 6.375,12.1875 6.375,12.28125 6.34375,12.3125 6.34375,12.40625 6.3125,12.4375 6.3125,12.53125 6.28125,12.5625 6.25,12.53125 6.25,12.5 6.25,12.53125 6.28125,12.5625 6.28125,12.65625 6.25,12.6875 6.25,12.8125 6.21875,12.84375 6.21875,12.96875 6.1875,13.0 6.1875,13.125 6.15625,13.15625 6.15625,13.3125 6.125,13.34375 6.125,13.5 6.09375,13.53125 6.0625,13.5 6.0625,13.53125 6.03125,13.5625 6.0,13.5625 6.03125,13.59375 6.03125,13.625 6.0625,13.65625 6.03125,13.6875 6.03125,13.71875 6.0,13.75 6.03125,13.75 6.03125,13.6875 6.0625,13.65625 6.09375,13.6875 6.09375,13.78125 6.0625,13.8125 6.0625,14.0625 6.03125,14.09375 6.0,14.0625 6.0,14.03125 6.0,14.0625 6.03125,14.09375 6.03125,14.15625 6.0,14.1875 6.03125,14.21875 6.03125,14.65625 6.0,14.6875 6.0,15.25 6.03125,15.28125 6.0,15.3125 6.03125,15.34375 6.03125,15.8125 6.0,15.84375 6.0625,15.90625 6.0625,16.21875 6.09375,16.25 6.09375,16.40625 6.0625,16.4375 6.03125,16.40625 6.03125,16.34375 6.0,16.3125 6.03125,16.34375 6.03125,16.4375 6.0625,16.4375 6.09375,16.46875 6.0625,16.5 6.03125,16.5 6.03125,16.53125 6.0,16.5625 6.03125,16.53125 6.0625,16.53125 6.0625,16.5 6.09375,16.46875 6.125,16.5 6.125,16.65625 6.15625,16.6875 6.15625,16.84375 6.125,16.875 6.15625,16.84375 6.1875,16.875 6.1875,17.0 6.21875,17.03125 6.21875,17.15625 6.25,17.1875 6.25,17.28125 6.28125,17.3125 6.28125,17.4375 6.25,17.46875 6.28125,17.4375 6.3125,17.46875 6.3125,17.53125 6.28125,17.5625 6.28125,17.59375 6.28125,17.5625 6.3125,17.53125 6.34375,17.5625 6.34375,17.6875 6.3125,17.71875 6.3125,17.75 6.3125,17.71875 6.34375,17.6875 6.375,17.71875 6.375,17.78125 6.40625,17.8125 6.40625,17.84375 6.375,17.875 6.40625,17.875 6.4375,17.90625 6.4375,18.0 6.46875,18.03125 6.46875,18.09375 6.5,18.125 6.5,18.1875 6.53125,18.21875 6.5,18.25 6.5,18.375 6.5,18.3125 6.53125,18.28125 6.5625,18.3125 6.5625,18.375 6.59375,18.40625 6.59375,18.46875 6.5625,18.5 6.53125,18.46875 6.53125,18.4375 6.53125,18.46875 6.5625,18.5 6.59375,18.46875 6.625,18.5 6.625,18.53125 6.65625,18.5625 6.65625,18.625 6.6875,18.65625 6.6875,18.6875 6.71875,18.71875 6.71875,18.78125 6.75,18.8125 6.75,18.84375 6.78125,18.875 6.78125,18.90625 6.8125,18.9375 6.8125,19.0 6.84375,19.03125 6.84375,19.0625 6.78125,19.125 6.84375,19.0625 6.875,19.09375 6.875,19.125 6.84375,19.15625 6.875,19.125 6.90625,19.15625 6.90625,19.1875 6.9375,19.21875 6.9375,19.25 6.96875,19.28125 6.96875,19.34375 7.03125,19.40625 7.03125,19.4375 7.0625,19.46875 7.0625,19.53125 7.09375,19.5625 7.0625,19.59375 7.03125,19.59375 7.0,19.5625 7.0,19.5 7.0,19.625 7.03125,19.65625 7.0625,19.65625 7.125,19.71875 7.15625,19.6875 7.1875,19.71875 7.1875,19.75 7.21875,19.78125 7.21875,19.8125 7.28125,19.875 7.28125,19.90625 7.25,19.9375 7.28125,19.90625 7.3125,19.9375 7.3125,19.96875 7.34375,20.0 7.34375,20.03125 7.3125,20.0625 7.3125,20.09375 7.3125,20.0625 7.34375,20.03125 7.375,20.0625 7.375,20.09375 7.40625,20.125 7.375,20.15625 7.34375,20.15625 7.375,20.1875 7.375,20.15625 7.40625,20.125 7.4375,20.15625 7.4375,20.1875 7.5,20.25 7.5,20.28125 7.53125,20.3125 7.53125,20.34375 7.59375,20.40625 7.59375,20.4375 7.5625,20.46875 7.59375,20.4375 7.65625,20.5 7.65625,20.53125 7.71875,20.59375 7.71875,20.625 7.78125,20.6875 7.78125,20.71875 7.8125,20.75 7.78125,20.78125 7.8125,20.75 7.84375,20.78125 7.84375,20.8125 7.8125,20.84375 7.84375,20.8125 7.90625,20.875 7.875,20.90625 7.90625,20.875 7.9375,20.90625 7.9375,20.9375 8.03125,21.03125 8.0,21.0625 8.03125,21.09375 8.0,21.125 8.03125,21.125 8.0625,21.15625 8.09375,21.125 8.15625,21.1875 8.125,21.21875 8.0625,21.21875 8.15625,21.21875 8.3125,21.375 8.3125,21.40625 8.46875,21.5625 8.46875,21.59375 8.5625,21.6875 8.53125,21.71875 8.5625,21.6875 8.65625,21.78125 8.625,21.8125 8.65625,21.78125 8.8125,21.9375 8.78125,21.96875 8.78125,22.0 8.78125,21.96875 8.8125,21.9375 9.0625,22.1875 9.03125,22.21875 9.0625,22.1875 9.15625,22.28125 9.125,22.3125 9.125,22.34375 9.125,22.3125 9.15625,22.28125 9.3125,22.4375 9.28125,22.46875 9.3125,22.4375 9.34375,22.4375 9.375,22.46875 9.375,22.5 9.40625,22.5 9.4375,22.53125 9.4375,22.5625 9.46875,22.5625 9.53125,22.625 9.5,22.65625 9.53125,22.6875 9.53125,22.71875 9.5625,22.75 9.53125,22.78125 9.5625,22.75 9.59375,22.78125 9.59375,22.8125 9.53125,22.875 9.5,22.84375 9.53125,22.875 9.53125,22.90625 9.5,22.9375 9.5,22.96875 9.46875,23.0 9.46875,23.03125 9.4375,23.0625 9.4375,23.09375 9.40625,23.125 9.40625,23.15625 9.375,23.1875 9.375,23.25 9.34375,23.28125 9.34375,23.3125 9.3125,23.34375 9.28125,23.34375 9.3125,23.375 9.3125,23.40625 9.28125,23.4375 9.28125,23.53125 9.25,23.5625 9.25,23.65625 9.21875,23.6875 9.21875,23.84375 9.1875,23.875 9.1875,24.0625 9.15625,24.09375 9.15625,24.28125 9.125,24.3125 9.03125,24.21875 9.09375,24.28125 9.0625,24.3125 9.09375,24.28125 9.125,24.3125 9.125,24.53125 9.09375,24.5625 9.03125,24.5 9.0625,24.46875 9.03125,24.5 9.0,24.5 9.03125,24.53125 9.0625,24.53125 9.09375,24.5625 9.09375,24.78125 9.0625,24.8125 9.0625,25.03125 9.03125,25.0625 9.0,25.03125 9.0,24.96875 9.0,25.125 9.03125,25.15625 9.03125,25.3125 9.0,25.34375 9.0,25.5625 8.96875,25.59375 8.96875,25.84375 8.9375,25.875 8.9375,26.15625 8.90625,26.1875 8.90625,26.21875 8.9375,26.25 8.9375,26.53125 8.96875,26.5625 8.96875,26.625 9.0,26.65625 9.0,26.6875 9.03125,26.71875 9.0,26.75 9.03125,26.75 9.0625,26.78125 9.03125,26.8125 9.0,26.8125 9.03125,26.8125 9.0625,26.78125 9.09375,26.8125 9.09375,26.84375 9.125,26.875 9.09375,26.90625 9.09375,26.9375 9.09375,26.90625 9.125,26.875 9.1875,26.9375 9.15625,26.96875 9.1875,26.9375 9.21875,26.96875 9.25,26.96875 9.28125,27.0 9.25,27.03125 9.28125,27.0625 9.25,27.09375 9.28125,27.0625 9.3125,27.09375 9.28125,27.0625 9.3125,27.03125 9.34375,27.03125 9.375,27.0625 9.40625,27.0625 9.4375,27.09375 9.46875,27.09375 9.5,27.125 9.625,27.125 9.65625,27.15625 17.71875,27.15625 17.75,27.1875 17.75,27.21875 17.8125,27.21875 17.78125,27.21875 17.75,27.1875 17.78125,27.15625 22.0625,27.15625 22.09375,27.1875 22.0625,27.21875 22.09375,27.21875 22.09375,27.1875 22.125,27.15625 22.21875,27.15625 22.28125,27.21875 22.3125,27.21875 22.28125,27.21875 22.25,27.1875 22.28125,27.15625 22.34375,27.15625 22.375,27.125 22.4375,27.125 22.46875,27.15625 22.4375,27.125 22.46875,27.09375 22.53125,27.09375 22.5625,27.125 22.53125,27.15625 22.5625,27.125 22.53125,27.09375 22.5625,27.0625 22.59375,27.0625 22.625,27.03125 22.65625,27.03125 22.71875,26.96875 22.75,26.96875 22.875,26.84375 22.875,26.8125 22.9375,26.75 22.9375,26.71875 22.96875,26.6875 22.96875,26.65625 23.0,26.625 23.03125,26.65625 23.0,26.625 23.0,26.5625 23.03125,26.53125 23.03125,26.03125 23.0,26.0 23.03125,25.96875 23.0,25.9375 23.0,25.65625 22.96875,25.625 22.96875,25.375 22.9375,25.34375 22.9375,25.125 22.90625,25.09375 22.90625,24.875 22.875,24.84375 22.875,24.59375 22.84375,24.5625 22.84375,24.3125 22.8125,24.28125 22.8125,24.0625 22.78125,24.03125 22.78125,23.875 22.8125,23.84375 22.78125,23.875 22.75,23.84375 22.75,23.75 22.71875,23.71875 22.71875,23.59375 22.6875,23.5625 22.6875,23.53125 22.71875,23.5 22.65625,23.4375 22.65625,23.40625 22.625,23.375 22.625,23.3125 22.59375,23.28125 22.59375,23.21875 22.625,23.1875 22.625,23.125 22.625,23.1875 22.59375,23.21875 22.5625,23.1875 22.5625,23.15625 22.53125,23.125 22.53125,23.09375 22.5,23.0625 22.5,23.03125 22.46875,23.0 22.46875,22.96875 22.4375,22.9375 22.4375,22.90625 22.40625,22.875 22.40625,22.84375 22.4375,22.8125 22.46875,22.84375 22.4375,22.8125 22.40625,22.84375 22.34375,22.78125 22.34375,22.71875 22.375,22.6875 22.40625,22.6875 22.4375,22.71875 22.4375,22.75 22.4375,22.71875 22.40625,22.6875 22.59375,22.5 22.625,22.5 22.6875,22.4375 22.71875,22.46875 22.6875,22.4375 22.78125,22.34375 22.8125,22.375 22.78125,22.34375 22.875,22.25 22.90625,22.25 22.9375,22.21875 22.96875,22.21875 22.96875,22.1875 23.15625,22.0 23.1875,22.03125 23.1875,22.0625 23.21875,22.0625 23.15625,22.0 23.4375,21.71875 23.46875,21.71875 23.46875,21.65625 23.6875,21.4375 23.71875,21.46875 23.6875,21.4375 23.6875,21.40625 23.84375,21.25 23.84375,21.21875 23.96875,21.09375 23.96875,21.0625 24.0625,20.96875 24.0625,20.9375 24.15625,20.84375 24.15625,20.8125 24.25,20.71875 24.25,20.6875 24.3125,20.625 24.3125,20.59375 24.375,20.53125 24.375,20.5 24.4375,20.4375 24.46875,20.46875 24.4375,20.4375 24.4375,20.40625 24.5,20.34375 24.5,20.3125 24.53125,20.28125 24.53125,20.25 24.59375,20.1875 24.59375,20.15625 24.625,20.125 24.625,20.09375 24.65625,20.0625 24.6875,20.09375 24.65625,20.0625 24.6875,20.03125 24.6875,20.0 24.71875,19.96875 24.71875,19.9375 24.75,19.90625 24.75,19.875 24.78125,19.84375 24.78125,19.8125 24.84375,19.75 24.84375,19.71875 24.875,19.6875 24.875,19.65625 24.90625,19.625 24.90625,19.59375 24.9375,19.5625 24.9375,19.53125 24.96875,19.5 24.96875,19.46875 25.0,19.4375 25.0,19.40625 25.03125,19.375 25.03125,19.34375 25.0625,19.3125 25.0625,19.28125 25.09375,19.25 25.09375,19.21875 25.125,19.1875 25.125,19.15625 25.15625,19.125 25.15625,19.09375 25.1875,19.0625 25.1875,19.0 25.21875,18.96875 25.21875,18.9375 25.25,18.90625 25.25,18.875 25.28125,18.84375 25.28125,18.78125 25.3125,18.75 25.3125,18.71875 25.34375,18.6875 25.34375,18.625 25.375,18.59375 25.375,18.5625 25.40625,18.53125 25.40625,18.46875 25.4375,18.4375 25.4375,18.40625 25.46875,18.375 25.46875,18.3125 25.5,18.28125 25.5,18.21875 25.53125,18.1875 25.53125,18.125 25.5625,18.09375 25.5625,18.03125 25.59375,18.0 25.59375,17.9375 25.625,17.90625 25.625,17.8125 25.65625,17.78125 25.65625,17.71875 25.6875,17.6875 25.71875,17.71875 25.6875,17.6875 25.6875,17.59375 25.71875,17.5625 25.71875,17.5 25.75,17.46875 25.75,17.34375 25.78125,17.3125 25.78125,17.21875 25.8125,17.1875 25.84375,17.21875 25.875,17.21875 25.875,17.1875 25.84375,17.21875 25.8125,17.1875 25.8125,17.09375 25.84375,17.0625 25.84375,16.90625 25.875,16.875 25.875,16.75 25.90625,16.71875 25.90625,16.5625 25.9375,16.53125 25.9375,16.34375 25.96875,16.3125 25.96875,16.0625 26.0,16.03125 26.0,15.65625 26.03125,15.625 26.03125,14.46875 26.0,14.4375 26.0,14.0625 25.96875,14.03125 25.96875,13.75 25.9375,13.71875 25.9375,13.53125 25.96875,13.5 25.96875,13.40625 25.96875,13.5 25.9375,13.53125 25.90625,13.5 25.90625,13.34375 25.9375,13.3125 25.96875,13.34375 25.9375,13.3125 25.90625,13.3125 25.875,13.28125 25.875,13.15625 25.84375,13.125 25.84375,12.96875 25.8125,12.9375 25.8125,12.8125 25.78125,12.78125 25.78125,12.71875 25.75,12.6875 25.75,12.5625 25.71875,12.53125 25.71875,12.4375 25.6875,12.40625 25.6875,12.34375 25.65625,12.3125 25.65625,12.21875 25.6875,12.1875 25.6875,12.15625 25.6875,12.1875 25.65625,12.21875 25.625,12.1875 25.625,12.125 25.59375,12.09375 25.59375,12.0 25.5625,11.96875 25.5625,11.90625 25.53125,11.875 25.53125,11.8125 25.5,11.78125 25.5,11.71875 25.46875,11.6875 25.46875,11.625 25.4375,11.59375 25.4375,11.5625 25.40625,11.53125 25.40625,11.46875 25.375,11.4375 25.375,11.375 25.34375,11.34375 25.34375,11.28125 25.3125,11.25 25.3125,11.21875 25.28125,11.1875 25.28125,11.15625 25.25,11.125 25.25,11.0625 25.21875,11.03125 25.21875,11.0 25.1875,10.96875 25.1875,10.9375 25.15625,10.90625 25.15625,10.84375 25.125,10.8125 25.125,10.78125 25.09375,10.75 25.09375,10.71875 25.125,10.6875 25.09375,10.71875 25.0625,10.6875 25.0625,10.65625 25.03125,10.625 25.03125,10.59375 25.0,10.5625 25.0,10.53125 24.96875,10.5 24.96875,10.46875 24.9375,10.4375 24.9375,10.375 24.96875,10.34375 24.9375,10.375 24.90625,10.34375 24.90625,10.3125 24.96875,10.25 24.9375,10.21875 24.96875,10.25 24.90625,10.3125 24.84375,10.25 24.84375,10.21875 24.8125,10.1875 24.8125,10.15625 24.84375,10.125 24.8125,10.15625 24.78125,10.125 24.78125,10.09375 24.75,10.0625 24.75,10.03125 24.6875,9.96875 24.6875,9.9375 24.65625,9.90625 24.65625,9.875 24.6875,9.84375 24.65625,9.875 24.625,9.84375 24.625,9.8125 24.59375,9.78125 24.59375,9.75 24.53125,9.6875 24.53125,9.65625 24.5,9.625 24.5,9.59375 24.4375,9.53125 24.46875,9.5 24.46875,9.46875 24.4375,9.5 24.375,9.4375 24.375,9.40625 24.40625,9.375 24.375,9.40625 24.3125,9.34375 24.3125,9.3125 24.25,9.25 24.25,9.21875 24.1875,9.15625 24.21875,9.125 24.1875,9.15625 24.15625,9.125 24.15625,9.09375 24.1875,9.0625 24.15625,9.09375 24.0625,9.0 24.0625,8.96875 24.03125,8.9375 24.0625,8.90625 24.03125,8.9375 23.96875,8.875 23.96875,8.84375 23.90625,8.78125 23.9375,8.75 23.96875,8.75 23.9375,8.75 23.90625,8.78125 23.875,8.75 23.875,8.71875 23.75,8.59375 23.75,8.5625 23.71875,8.53125 23.71875,8.5 23.6875,8.5 23.65625,8.46875 23.65625,8.4375 23.6875,8.40625 23.65625,8.40625 23.625,8.4375 23.53125,8.34375 23.53125,8.3125 23.5,8.28125 23.53125,8.25 23.5,8.28125 23.4375,8.21875 23.46875,8.1875 23.4375,8.21875 23.25,8.03125 23.25,8.0 23.21875,7.96875 23.21875,7.9375 23.1875,7.9375 23.0625,7.8125 23.09375,7.78125 23.0625,7.75 23.03125,7.78125 22.875,7.625 22.84375,7.625 22.78125,7.5625 22.84375,7.5 22.8125,7.53125 22.78125,7.5 22.75,7.53125 22.5625,7.34375 22.53125,7.34375 22.40625,7.21875 22.375,7.21875 22.28125,7.125 22.3125,7.09375 22.28125,7.0625 22.25,7.09375 22.21875,7.09375 22.15625,7.03125 22.1875,7.0 22.21875,7.0 22.1875,7.0 22.15625,7.03125 22.09375,6.96875 22.0625,6.96875 21.96875,6.875 21.9375,6.875 21.90625,6.84375 21.9375,6.8125 21.96875,6.8125 21.9375,6.8125 21.90625,6.84375 21.84375,6.78125 21.8125,6.78125 21.75,6.71875 21.71875,6.71875 21.6875,6.6875 21.71875,6.65625 21.65625,6.59375 21.6875,6.5625 21.71875,6.5625 21.6875,6.5625 21.65625,6.59375 21.625,6.59375 21.59375,6.5625 21.625,6.59375 21.59375,6.625 21.5625,6.625 21.46875,6.53125 21.46875,6.5 21.4375,6.53125 21.40625,6.5 21.375,6.5 21.3125,6.4375 21.28125,6.4375 21.21875,6.375 21.1875,6.375 21.15625,6.34375 21.1875,6.3125 21.21875,6.3125 21.1875,6.3125 21.15625,6.28125 21.1875,6.25 21.15625,6.25 21.15625,6.28125 21.1875,6.3125 21.15625,6.34375 21.125,6.34375 21.0625,6.28125 21.09375,6.25 21.0625,6.25 21.03125,6.28125 21.0,6.25 20.96875,6.25 20.9375,6.21875 20.90625,6.21875 20.875,6.1875 20.84375,6.1875 20.8125,6.15625 20.78125,6.15625 20.75,6.125 20.78125,6.09375 20.75,6.0625 20.78125,6.09375 20.75,6.125 20.71875,6.125 20.65625,6.0625 20.6875,6.03125 20.6875,6.0 20.6875,6.03125 20.65625,6.0625 20.625,6.0625 20.59375,6.03125 20.625,6.0 20.59375,6.03125 20.5625,6.03125 20.53125,6.0 20.5,6.0 20.46875,5.96875 20.4375,5.96875 20.40625,5.9375 20.375,5.9375 20.34375,5.90625 20.28125,5.90625 20.25,5.875 20.21875,5.875 20.1875,5.84375 20.15625,5.84375 20.125,5.8125 20.15625,5.78125 20.125,5.8125 20.0625,5.8125 20.03125,5.78125 20.0,5.78125 19.96875,5.75 19.9375,5.75 19.90625,5.71875 19.84375,5.71875 19.8125,5.6875 19.78125,5.6875 19.75,5.65625 19.6875,5.65625 19.65625,5.625 19.6875,5.59375 19.65625,5.5625 19.6875,5.59375 19.65625,5.625 19.59375,5.625 19.5625,5.59375 19.53125,5.59375 19.5,5.5625 19.53125,5.53125 19.5625,5.53125 19.53125,5.53125 19.5,5.5625 19.40625,5.5625 19.375,5.53125 19.34375,5.53125 19.3125,5.5 19.21875,5.5 19.1875,5.46875 19.125,5.46875 19.09375,5.4375 19.03125,5.4375 19.0,5.40625 18.9375,5.40625 18.90625,5.375 18.8125,5.375 18.78125,5.34375 18.71875,5.34375 18.6875,5.3125 18.5625,5.3125 18.53125,5.28125 18.5625,5.25 18.53125,5.28125 18.46875,5.28125 18.4375,5.25 18.3125,5.25 18.28125,5.21875 18.1875,5.21875 18.15625,5.1875 18.0,5.1875 17.96875,5.15625 17.84375,5.15625 17.8125,5.125 17.65625,5.125 17.625,5.09375 17.4375,5.09375 17.40625,5.0625 17.1875,5.0625 17.15625,5.03125 17.1875,5.0 17.21875,5.0 17.1875,5.0 17.15625,5.03125 17.125,5.0 17.09375,5.03125 17.0625,5.03125 17.03125,5.0 17.0,5.03125 16.96875,5.03125 16.9375,5.0 16.90625,5.03125 16.875,5.0 16.3125,5.0 16.28125,4.96875" /></svg>