<svg baseProfile="full" height="24" version="1.1" width="24" xmlns="http://www.w3.org/2000/svg" xmlns:ev="http://www.w3.org/2001/xml-events" xmlns:xlink="http://www.w3.org/1999/xlink"><defs /><polygon fill="black" points="16.9453125,20.4140625" /><polygon fill="black" points="16.4765625,20.4140625 16.5,20.4140625" /><polygon fill="black" points="16.40625,20.4140625" /><polygon fill="black" points="16.1953125,20.4140625 16.359375,20.4140625" /><polygon fill="black" points="16.1015625,20.4140625 16.1484375,20.4140625" /><polygon fill="black" points="16.03125,20.4140625 16.0546875,20.4140625" /><polygon fill="black" points="15.9375,20.4140625 15.984375,20.4140625" /><polygon fill="black" points="15.8671875,20.4140625" /><polygon fill="black" points="15.75,20.4140625 15.796875,20.4140625" /><polygon fill="black" points="15.6796875,20.4140625 15.703125,20.4140625" /><polygon fill="black" points="15.609375,20.4140625" /><polygon fill="black" points="15.5390625,20.4140625 15.5625,20.4140625" /><polygon fill="black" points="15.4921875,20.4140625" /><polygon fill="black" points="15.375,20.4140625" /><polygon fill="black" points="15.3046875,20.4140625" /><polygon fill="black" points="15.1640625,20.4140625 15.234375,20.4140625" /><polygon fill="black" points="15.0703125,20.4140625 15.1171875,20.4140625" /><polygon fill="black" points="15.0,20.4140625 15.0234375,20.4140625" /><polygon fill="black" points="14.9296875,20.4140625" /><polygon fill="black" points="14.8125,20.4140625 14.859375,20.4140625" /><polygon fill="black" points="14.71875,20.4140625 14.7421875,20.4140625" /><polygon fill="black" points="14.6015625,20.4140625 14.671875,20.4140625" /><polygon fill="black" points="14.4375,20.4140625 14.5546875,20.4140625" /><polygon fill="black" points="14.34375,20.4140625 14.3671875,20.4140625" /><polygon fill="black" points="14.2265625,20.4140625 14.296875,20.4140625" /><polygon fill="black" points="14.15625,20.4140625 14.1796875,20.4140625" /><polygon fill="black" points="13.96875,20.4140625 14.109375,20.4140625" /><polygon fill="black" points="13.6640625,20.4140625 13.875,20.4140625" /><polygon fill="black" points="13.59375,20.4140625 13.6171875,20.4140625" /><polygon fill="black" points="13.5,20.4140625 13.546875,20.4140625" /><polygon fill="black" points="13.4296875,20.4140625 13.453125,20.4140625" /><polygon fill="black" points="13.2421875,20.4140625 13.265625,20.4140625" /><polygon fill="black" points="13.125,20.4140625 13.1484375,20.4140625" /><polygon fill="black" points="13.0078125,20.4140625 13.0546875,20.4140625" /><polygon fill="black" points="12.8671875,20.4140625 12.9609375,20.4140625" /><polygon fill="black" points="12.7265625,20.4140625 12.8203125,20.4140625" /><polygon fill="black" points="12.6796875,20.4140625" /><polygon fill="black" points="12.609375,20.4140625" /><polygon fill="black" points="12.5390625,20.4140625" /><polygon fill="black" points="12.46875,20.4140625 12.4921875,20.4140625" /><polygon fill="black" points="12.3515625,20.4140625 12.421875,20.4140625" /><polygon fill="black" points="12.28125,20.4140625 12.3046875,20.4140625" /><polygon fill="black" points="12.1875,20.4140625 12.2109375,20.4140625" /><polygon fill="black" points="12.1171875,20.4140625" /><polygon fill="black" points="11.8125,20.4140625 12.0234375,20.4140625" /><polygon fill="black" points="11.71875,20.4140625 11.7421875,20.4140625" /><polygon fill="black" points="11.625,20.4140625 11.671875,20.4140625" /><polygon fill="black" points="11.5546875,20.4140625" /><polygon fill="black" points="11.4375,20.4140625 11.5078125,20.4140625" /><polygon fill="black" points="11.34375,20.4140625 11.3671875,20.4140625" /><polygon fill="black" points="11.2265625,20.4140625 11.2734375,20.4140625" /><polygon fill="black" points="11.15625,20.4140625 11.1796875,20.4140625" /><polygon fill="black" points="11.0625,20.4140625 11.0859375,20.4140625" /><polygon fill="black" points="10.96875,20.4140625 10.9921875,20.4140625" /><polygon fill="black" points="10.875,20.4140625 10.921875,20.4140625" /><polygon fill="black" points="10.7578125,20.4140625 10.78125,20.4140625" /><polygon fill="black" points="10.6875,20.4140625 10.7109375,20.4140625" /><polygon fill="black" points="10.59375,20.4140625 10.6171875,20.4140625" /><polygon fill="black" points="10.5,20.4140625" /><polygon fill="black" points="10.4296875,20.4140625" /><polygon fill="black" points="10.2890625,20.4140625 10.3828125,20.4140625" /><polygon fill="black" points="10.21875,20.4140625 10.2421875,20.4140625" /><polygon fill="black" points="10.125,20.4140625 10.171875,20.4140625" /><polygon fill="black" points="10.03125,20.4140625 10.0546875,20.4140625" /><polygon fill="black" points="9.9375,20.4140625 9.984375,20.4140625" /><polygon fill="black" points="9.8671875,20.4140625" /><polygon fill="black" points="9.796875,20.4140625" /><polygon fill="black" points="9.75,20.4140625" /><polygon fill="black" points="9.6796875,20.4140625" /><polygon fill="black" points="9.6328125,20.4140625" /><polygon fill="black" points="9.5625,20.4140625 9.5859375,20.4140625" /><polygon fill="black" points="9.421875,20.4140625" /><polygon fill="black" points="9.3515625,20.4140625" /><polygon fill="black" points="9.3046875,20.4140625" /><polygon fill="black" points="9.2109375,20.4140625" /><polygon fill="black" points="9.046875,20.4140625 9.1171875,20.4140625" /><polygon fill="black" points="8.9296875,20.4140625 9.0,20.4140625" /><polygon fill="black" points="8.8125,20.4140625 8.859375,20.4140625" /><polygon fill="black" points="8.625,20.4140625 8.6953125,20.4140625" /><polygon fill="black" points="8.5546875,20.4140625" /><polygon fill="black" points="8.484375,20.4140625" /><polygon fill="black" points="8.4140625,20.4140625 8.4375,20.4140625" /><polygon fill="black" points="8.3671875,20.4140625" /><polygon fill="black" points="8.3203125,20.4140625" /><polygon fill="black" points="8.25,20.4140625 8.2734375,20.4140625" /><polygon fill="black" points="8.15625,20.4140625 8.1796875,20.4140625" /><polygon fill="black" points="8.0625,20.4140625 8.109375,20.4140625" /><polygon fill="black" points="7.9921875,20.4140625" /><polygon fill="black" points="7.875,20.4140625 7.8984375,20.4140625" /><polygon fill="black" points="7.734375,20.4140625 7.8046875,20.4140625" /><polygon fill="black" points="7.6875,20.4140625" /><polygon fill="black" points="7.6171875,20.4140625" /><polygon fill="black" points="7.5,20.4140625" /><polygon fill="black" points="7.40625,20.4140625 7.4296875,20.4140625" /><polygon fill="black" points="7.3125,20.4140625" /><polygon fill="black" points="7.125,20.390625 7.125,20.4140625 7.1484375,20.390625" /><polygon fill="black" points="7.078125,20.3671875" /><polygon fill="black" points="16.9921875,20.3203125" /><polygon fill="black" points="17.15625,20.2265625" /><polygon fill="black" points="6.7734375,20.15625" /><polygon fill="black" points="6.65625,19.8515625" /><polygon fill="black" points="6.6328125,19.7109375 6.65625,19.734375" /><polygon fill="black" points="17.3203125,19.6171875" /><polygon fill="black" points="6.65625,19.5703125" /><polygon fill="black" points="17.296875,19.3828125" /><polygon fill="black" points="17.2265625,18.703125" /><polygon fill="black" points="6.75,18.65625" /><polygon fill="black" points="6.7734375,18.5390625 6.75,18.5625" /><polygon fill="black" points="6.75,18.4453125 6.7734375,18.46875 6.7734375,18.4921875 6.7734375,18.4453125" /><polygon fill="black" points="6.796875,18.28125 6.796875,18.3046875" /><polygon fill="black" points="6.796875,18.0" /><polygon fill="black" points="6.84375,17.9765625" /><polygon fill="black" points="17.109375,17.8359375" /><polygon fill="black" points="16.9921875,17.4375" /><polygon fill="black" points="6.984375,17.4140625" /><polygon fill="black" points="17.0390625,17.3671875" /><polygon fill="black" points="16.921875,17.2734375" /><polygon fill="black" points="6.984375,17.2734375" /><polygon fill="black" points="17.1328125,16.8515625" /><polygon fill="black" points="17.15625,16.8046875" /><polygon fill="black" points="17.1796875,16.734375" /><polygon fill="black" points="17.34375,16.6640625" /><polygon fill="black" points="17.296875,16.6640625" /><polygon fill="black" points="6.6796875,16.6171875 6.6796875,16.640625 6.703125,16.6171875" /><polygon fill="black" points="6.515625,16.4765625" /><polygon fill="black" points="17.5078125,16.453125" /><polygon fill="black" points="6.375,16.3828125" /><polygon fill="black" points="17.7890625,16.2890625" /><polygon fill="black" points="17.6484375,16.2890625" /><polygon fill="black" points="6.1875,16.1484375" /><polygon fill="black" points="6.2109375,16.1015625" /><polygon fill="black" points="6.1875,16.0546875" /><polygon fill="black" points="5.765625,15.5390625" /><polygon fill="black" points="18.4453125,15.3046875" /><polygon fill="black" points="5.4375,15.1640625" /><polygon fill="black" points="18.65625,14.953125" /><polygon fill="black" points="18.6328125,14.8828125" /><polygon fill="black" points="18.703125,14.8359375" /><polygon fill="black" points="18.703125,14.7890625" /><polygon fill="black" points="18.84375,14.484375" /><polygon fill="black" points="5.0625,14.4140625" /><polygon fill="black" points="5.0625,14.2734375 5.0625,14.296875" /><polygon fill="black" points="19.0546875,14.0390625" /><polygon fill="black" points="4.96875,14.015625" /><polygon fill="black" points="19.078125,13.9453125" /><polygon fill="black" points="4.9453125,13.9453125 4.921875,13.96875 4.9453125,13.96875" /><polygon fill="black" points="19.265625,13.5703125" /><polygon fill="black" points="19.21875,13.546875" /><polygon fill="black" points="19.2421875,13.4765625" /><polygon fill="black" points="4.78125,13.4765625" /><polygon fill="black" points="4.7109375,13.4765625 4.734375,13.4765625" /><polygon fill="black" points="4.6875,13.40625" /><polygon fill="black" points="19.265625,13.3828125 19.265625,13.40625" /><polygon fill="black" points="19.2890625,13.3359375" /><polygon fill="black" points="19.4296875,12.7265625" /><polygon fill="black" points="4.59375,12.703125 4.59375,12.7265625" /><polygon fill="black" points="4.5234375,12.6328125" /><polygon fill="black" points="19.4765625,12.5390625" /><polygon fill="black" points="4.5703125,12.5390625 4.5703125,12.5859375" /><polygon fill="black" points="4.546875,12.4921875" /><polygon fill="black" points="4.5,12.1171875" /><polygon fill="black" points="4.5,12.046875" /><polygon fill="black" points="4.5,11.953125 4.5,12.0" /><polygon fill="black" points="19.5703125,11.5546875" /><polygon fill="black" points="19.640625,11.3203125" /><polygon fill="black" points="19.5703125,11.1796875" /><polygon fill="black" points="4.5,10.4296875" /><polygon fill="black" points="19.453125,9.9375" /><polygon fill="black" points="4.5703125,9.890625 4.546875,9.9140625" /><polygon fill="black" points="4.59375,9.796875" /><polygon fill="black" points="19.4296875,9.5390625" /><polygon fill="black" points="4.7109375,9.2109375 4.6875,9.234375 4.7109375,9.2578125 4.7109375,9.28125 4.7109375,9.2578125 4.6875,9.234375" /><polygon fill="black" points="4.6875,9.0234375" /><polygon fill="black" points="4.8984375,8.6484375 4.875,8.671875" /><polygon fill="black" points="19.1015625,8.625" /><polygon fill="black" points="19.1015625,8.5546875" /><polygon fill="black" points="19.0546875,8.484375" /><polygon fill="black" points="4.96875,8.4609375" /><polygon fill="black" points="19.078125,8.4375" /><polygon fill="black" points="4.8984375,8.4375" /><polygon fill="black" points="18.984375,8.3203125" /><polygon fill="black" points="5.0625,8.0859375" /><polygon fill="black" points="5.671875,7.03125" /><polygon fill="black" points="5.765625,6.9375" /><polygon fill="black" points="5.8125,6.84375" /><polygon fill="black" points="17.90625,6.375 17.8828125,6.3984375" /><polygon fill="black" points="6.2578125,6.28125 6.28125,6.28125" /><polygon fill="black" points="6.1875,6.2578125" /><polygon fill="black" points="6.234375,6.2109375" /><polygon fill="black" points="17.7890625,6.1875" /><polygon fill="black" points="6.421875,6.1171875" /><polygon fill="black" points="17.578125,6.09375" /><polygon fill="black" points="17.578125,6.0" /><polygon fill="black" points="6.5859375,5.8828125" /><polygon fill="black" points="17.4140625,5.8359375" /><polygon fill="black" points="6.5625,5.8125 6.5859375,5.8125" /><polygon fill="black" points="6.890625,5.625" /><polygon fill="black" points="6.8203125,5.625" /><polygon fill="black" points="7.1015625,5.4609375 7.078125,5.484375" /><polygon fill="black" points="16.6640625,5.1328125" /><polygon fill="black" points="7.5,5.109375 7.5,5.1328125 7.5234375,5.109375" /><polygon fill="black" points="7.59375,5.0625" /><polygon fill="black" points="7.546875,5.0625" /><polygon fill="black" points="7.6875,4.9453125" /><polygon fill="black" points="7.8046875,4.8984375" /><polygon fill="black" points="7.734375,4.8984375" /><polygon fill="black" points="16.2890625,4.875" /><polygon fill="black" points="8.0390625,4.78125" /><polygon fill="black" points="8.109375,4.734375" /><polygon fill="black" points="8.3203125,4.6171875" /><polygon fill="black" points="15.65625,4.5703125" /><polygon fill="black" points="8.4375,4.546875 8.4140625,4.5703125" /><polygon fill="black" points="15.5859375,4.5" /><polygon fill="black" points="8.5546875,4.5" /><polygon fill="black" points="8.6953125,4.4296875" /><polygon fill="black" points="8.625,4.3828125" /><polygon fill="black" points="8.71875,4.3359375" /><polygon fill="black" points="8.625,4.3359375" /><polygon fill="black" points="15.0703125,4.3125" /><polygon fill="black" points="8.953125,4.3125" /><polygon fill="black" points="8.8359375,4.3125 8.859375,4.3125" /><polygon fill="black" points="14.90625,4.2421875" /><polygon fill="black" points="9.2109375,4.1953125 9.234375,4.1953125" /><polygon fill="black" points="9.28125,4.171875" /><polygon fill="black" points="14.578125,4.125" /><polygon fill="black" points="9.328125,4.125 9.3515625,4.1484375 9.375,4.125 9.3515625,4.1484375" /><polygon fill="black" points="14.4140625,4.0546875" /><polygon fill="black" points="9.609375,4.0546875 9.6328125,4.0546875" /><polygon fill="black" points="9.703125,4.03125" /><polygon fill="black" points="14.2734375,4.0078125" /><polygon fill="black" points="9.75,4.0078125" /><polygon fill="black" points="14.203125,3.9375 14.1796875,3.9609375 14.203125,3.9375 14.2265625,3.9375" /><polygon fill="black" points="14.109375,3.9375 14.0859375,3.9609375 14.0625,3.9609375 14.0859375,3.9609375" /><polygon fill="black" points="14.015625,3.9375" /><polygon fill="black" points="13.96875,3.9375" /><polygon fill="black" points="10.0078125,3.9375 10.03125,3.9375" /><polygon fill="black" points="13.7578125,3.8671875" /><polygon fill="black" points="10.3359375,3.8671875" /><polygon fill="black" points="13.5703125,3.84375 13.59375,3.84375" /><polygon fill="black" points="10.40625,3.84375" /><polygon fill="black" points="13.453125,3.8203125" /><polygon fill="black" points="10.5234375,3.8203125 10.546875,3.8203125" /><polygon fill="black" points="13.5234375,3.7734375" /><polygon fill="black" points="10.78125,3.7734375 10.8046875,3.7734375" /><polygon fill="black" points="12.9609375,3.75 13.078125,3.75 13.1015625,3.7734375 13.1015625,3.75" /><polygon fill="black" points="10.875,3.75 10.8984375,3.75" /><polygon fill="black" points="10.4765625,3.75" /><polygon fill="black" points="11.6953125,3.7265625 11.671875,3.75 11.203125,3.75 11.1796875,3.7734375 11.109375,3.7734375 11.0859375,3.75 10.96875,3.75 11.015625,3.75 11.0390625,3.7734375 11.015625,3.796875 10.8984375,3.796875 10.875,3.8203125 10.734375,3.8203125 10.7109375,3.84375 10.59375,3.84375 10.5703125,3.8671875 10.5,3.8671875 10.4765625,3.890625 10.3828125,3.890625 10.359375,3.9140625 10.265625,3.9140625 10.2421875,3.9375 10.171875,3.9375 10.1484375,3.9609375 10.1015625,3.9609375 10.078125,3.984375 10.0078125,3.984375 9.984375,4.0078125 9.9140625,4.0078125 9.890625,3.984375 9.9140625,3.9609375 9.9140625,3.9375 9.9140625,3.9609375 9.890625,3.984375 9.9140625,4.0078125 9.890625,4.03125 9.84375,4.03125 9.8203125,4.0546875 9.75,4.0546875 9.7265625,4.078125 9.6796875,4.078125 9.65625,4.1015625 9.609375,4.1015625 9.5859375,4.125 9.5390625,4.125 9.515625,4.1484375 9.46875,4.1484375 9.4453125,4.125 9.46875,4.1484375 9.4453125,4.171875 9.3984375,4.171875 9.375,4.1953125 9.3515625,4.1953125 9.328125,4.21875 9.28125,4.21875 9.2578125,4.2421875 9.2109375,4.2421875 9.1875,4.265625 9.1640625,4.265625 9.140625,4.2890625 9.1171875,4.2890625 9.09375,4.3125 9.046875,4.3125 9.0234375,4.3359375 9.0,4.3359375 8.9765625,4.359375 8.9296875,4.359375 8.90625,4.3828125 8.8828125,4.3828125 8.859375,4.40625 8.8359375,4.40625 8.8125,4.3828125 8.8359375,4.40625 8.8125,4.4296875 8.7890625,4.4296875 8.765625,4.453125 8.7421875,4.453125 8.71875,4.4765625 8.6953125,4.4765625 8.671875,4.5 8.625,4.5 8.578125,4.546875 8.5546875,4.546875 8.53125,4.5703125 8.5078125,4.5703125 8.484375,4.546875 8.5078125,4.5703125 8.484375,4.59375 8.4609375,4.59375 8.4375,4.6171875 8.4140625,4.6171875 8.390625,4.640625 8.3671875,4.640625 8.34375,4.6640625 8.3203125,4.6640625 8.2734375,4.7109375 8.25,4.7109375 8.2265625,4.6875 8.25,4.7109375 8.2265625,4.734375 8.203125,4.734375 8.1796875,4.7109375 8.203125,4.734375 8.15625,4.78125 8.1328125,4.78125 8.109375,4.8046875 8.0859375,4.8046875 8.0390625,4.8515625 8.015625,4.8515625 7.9921875,4.875 7.96875,4.875 7.9453125,4.8984375 7.921875,4.875 7.9453125,4.8984375 7.921875,4.921875 7.8984375,4.921875 7.8515625,4.875 7.8984375,4.921875 7.8515625,4.96875 7.828125,4.96875 7.78125,5.015625 7.7578125,5.015625 7.7109375,5.0625 7.6875,5.0625 7.6640625,5.0859375 7.640625,5.0625 7.6640625,5.0859375 7.640625,5.109375 7.6171875,5.109375 7.59375,5.1328125 7.5703125,5.109375 7.59375,5.1328125 7.546875,5.1796875 7.5234375,5.1796875 7.4765625,5.2265625 7.453125,5.2265625 7.40625,5.2734375 7.3828125,5.25 7.40625,5.2734375 7.359375,5.3203125 7.3359375,5.3203125 7.3125,5.296875 7.3359375,5.2734375 7.3359375,5.25 7.3359375,5.2734375 7.3125,5.296875 7.3359375,5.3203125 7.2421875,5.4140625 7.21875,5.4140625 7.171875,5.4609375 7.1484375,5.4375 7.171875,5.4609375 7.078125,5.5546875 7.0546875,5.5546875 6.984375,5.625 6.9375,5.625 6.9375,5.6484375 6.9140625,5.671875 6.9140625,5.6953125 6.890625,5.71875 6.8671875,5.71875 6.84375,5.7421875 6.796875,5.6953125 6.8203125,5.671875 6.84375,5.671875 6.8203125,5.671875 6.796875,5.6953125 6.8203125,5.71875 6.796875,5.7421875 6.8203125,5.765625 6.75,5.8359375 6.7265625,5.8125 6.6796875,5.8125 6.65625,5.8359375 6.6796875,5.8125 6.7265625,5.859375 6.5859375,6.0 6.5625,6.0 6.5625,6.0234375 6.4921875,6.09375 6.46875,6.0703125 6.46875,6.09375 6.4921875,6.1171875 6.3984375,6.2109375 6.375,6.1875 6.3984375,6.2109375 6.328125,6.28125 6.328125,6.3046875 6.1875,6.4453125 6.1875,6.46875 6.1171875,6.5390625 6.1171875,6.5625 6.09375,6.5859375 6.0703125,6.5625 6.09375,6.5859375 6.046875,6.6328125 6.0234375,6.609375 6.046875,6.6328125 6.0234375,6.65625 6.0234375,6.6796875 5.953125,6.75 5.953125,6.7734375 5.9296875,6.796875 5.90625,6.7734375 5.8828125,6.7734375 5.90625,6.7734375 5.9296875,6.796875 5.8828125,6.84375 5.859375,6.8203125 5.8828125,6.84375 5.8828125,6.8671875 5.8359375,6.9140625 5.8125,6.9140625 5.8359375,6.9375 5.7890625,6.984375 5.7890625,7.0078125 5.7421875,7.0546875 5.7421875,7.078125 5.6953125,7.125 5.6953125,7.1484375 5.6484375,7.1953125 5.625,7.171875 5.625,7.1484375 5.6484375,7.125 5.625,7.1484375 5.625,7.171875 5.6484375,7.1953125 5.6484375,7.21875 5.625,7.2421875 5.625,7.265625 5.578125,7.3125 5.578125,7.3359375 5.5546875,7.359375 5.53125,7.3359375 5.53125,7.3125 5.5078125,7.3125 5.484375,7.3359375 5.4609375,7.3359375 5.484375,7.359375 5.4609375,7.3828125 5.4375,7.3828125 5.4609375,7.3828125 5.484375,7.359375 5.484375,7.3359375 5.5078125,7.3125 5.5546875,7.359375 5.5546875,7.3828125 5.5078125,7.4296875 5.5078125,7.453125 5.484375,7.4765625 5.484375,7.5 5.4609375,7.5234375 5.4375,7.5 5.4375,7.453125 5.4609375,7.4296875 5.4375,7.453125 5.4375,7.5234375 5.4609375,7.546875 5.4140625,7.59375 5.4140625,7.6171875 5.390625,7.640625 5.390625,7.6640625 5.3671875,7.6875 5.3671875,7.7109375 5.34375,7.734375 5.34375,7.7578125 5.3203125,7.78125 5.3203125,7.8046875 5.296875,7.828125 5.2734375,7.8046875 5.2734375,7.78125 5.2734375,7.8046875 5.296875,7.828125 5.296875,7.8515625 5.2734375,7.875 5.25,7.8515625 5.25,7.875 5.2734375,7.8984375 5.25,7.921875 5.25,7.9453125 5.2265625,7.96875 5.2265625,7.9921875 5.203125,8.015625 5.203125,8.0390625 5.1796875,8.0625 5.1796875,8.0859375 5.15625,8.109375 5.1328125,8.0859375 5.109375,8.0859375 5.1328125,8.0859375 5.15625,8.109375 5.15625,8.15625 5.1328125,8.1796875 5.1328125,8.203125 5.109375,8.2265625 5.109375,8.25 5.0859375,8.2734375 5.0859375,8.3203125 5.0625,8.34375 5.0625,8.3671875 5.0390625,8.390625 5.0390625,8.4140625 5.015625,8.4375 5.015625,8.484375 4.9921875,8.5078125 4.9921875,8.5546875 4.96875,8.578125 4.96875,8.625 4.9453125,8.6484375 4.9453125,8.671875 4.921875,8.6953125 4.921875,8.7421875 4.875,8.7890625 4.8984375,8.8125 4.875,8.8359375 4.875,8.8828125 4.8515625,8.90625 4.8515625,8.953125 4.828125,8.9765625 4.828125,9.046875 4.8046875,9.0703125 4.78125,9.046875 4.7578125,9.0703125 4.7578125,9.09375 4.7578125,9.0703125 4.78125,9.046875 4.8046875,9.0703125 4.8046875,9.1171875 4.78125,9.140625 4.78125,9.2109375 4.7578125,9.234375 4.7578125,9.3046875 4.734375,9.328125 4.734375,9.3984375 4.7109375,9.421875 4.6875,9.3984375 4.6875,9.375 4.6875,9.3984375 4.7109375,9.421875 4.7109375,9.4921875 4.6875,9.515625 4.6875,9.609375 4.6640625,9.6328125 4.6640625,9.7265625 4.640625,9.75 4.640625,9.84375 4.6171875,9.8671875 4.6171875,9.984375 4.59375,10.0078125 4.59375,10.125 4.5703125,10.1484375 4.546875,10.125 4.546875,10.1484375 4.5234375,10.171875 4.5,10.171875 4.5234375,10.1953125 4.5234375,10.21875 4.546875,10.2421875 4.5234375,10.265625 4.5234375,10.2890625 4.5,10.3125 4.5234375,10.3125 4.5234375,10.265625 4.546875,10.2421875 4.5703125,10.265625 4.5703125,10.3359375 4.546875,10.359375 4.546875,10.546875 4.5234375,10.5703125 4.5,10.546875 4.5,10.5234375 4.5,10.546875 4.5234375,10.5703125 4.5234375,10.6171875 4.5,10.640625 4.5234375,10.6640625 4.5234375,10.9921875 4.5,11.015625 4.5,11.4375 4.5234375,11.4609375 4.5,11.484375 4.5234375,11.5078125 4.5234375,11.859375 4.5,11.8828125 4.546875,11.9296875 4.546875,12.1640625 4.5703125,12.1875 4.5703125,12.3046875 4.546875,12.328125 4.5234375,12.3046875 4.5234375,12.2578125 4.5,12.234375 4.5234375,12.2578125 4.5234375,12.328125 4.546875,12.328125 4.5703125,12.3515625 4.546875,12.375 4.5234375,12.375 4.5234375,12.3984375 4.5,12.421875 4.5234375,12.3984375 4.546875,12.3984375 4.546875,12.375 4.5703125,12.3515625 4.59375,12.375 4.59375,12.4921875 4.6171875,12.515625 4.6171875,12.6328125 4.59375,12.65625 4.6171875,12.6328125 4.640625,12.65625 4.640625,12.75 4.6640625,12.7734375 4.6640625,12.8671875 4.6875,12.890625 4.6875,12.9609375 4.7109375,12.984375 4.7109375,13.078125 4.6875,13.1015625 4.7109375,13.078125 4.734375,13.1015625 4.734375,13.1484375 4.7109375,13.171875 4.7109375,13.1953125 4.7109375,13.171875 4.734375,13.1484375 4.7578125,13.171875 4.7578125,13.265625 4.734375,13.2890625 4.734375,13.3125 4.734375,13.2890625 4.7578125,13.265625 4.78125,13.2890625 4.78125,13.3359375 4.8046875,13.359375 4.8046875,13.3828125 4.78125,13.40625 4.8046875,13.40625 4.828125,13.4296875 4.828125,13.5 4.8515625,13.5234375 4.8515625,13.5703125 4.875,13.59375 4.875,13.640625 4.8984375,13.6640625 4.875,13.6875 4.875,13.78125 4.875,13.734375 4.8984375,13.7109375 4.921875,13.734375 4.921875,13.78125 4.9453125,13.8046875 4.9453125,13.8515625 4.921875,13.875 4.8984375,13.8515625 4.8984375,13.828125 4.8984375,13.8515625 4.921875,13.875 4.9453125,13.8515625 4.96875,13.875 4.96875,13.8984375 4.9921875,13.921875 4.9921875,13.96875 5.015625,13.9921875 5.015625,14.015625 5.0390625,14.0390625 5.0390625,14.0859375 5.0625,14.109375 5.0625,14.1328125 5.0859375,14.15625 5.0859375,14.1796875 5.109375,14.203125 5.109375,14.25 5.1328125,14.2734375 5.1328125,14.296875 5.0859375,14.34375 5.1328125,14.296875 5.15625,14.3203125 5.15625,14.34375 5.1328125,14.3671875 5.15625,14.34375 5.1796875,14.3671875 5.1796875,14.390625 5.203125,14.4140625 5.203125,14.4375 5.2265625,14.4609375 5.2265625,14.5078125 5.2734375,14.5546875 5.2734375,14.578125 5.296875,14.6015625 5.296875,14.6484375 5.3203125,14.671875 5.296875,14.6953125 5.2734375,14.6953125 5.25,14.671875 5.25,14.625 5.25,14.71875 5.2734375,14.7421875 5.296875,14.7421875 5.34375,14.7890625 5.3671875,14.765625 5.390625,14.7890625 5.390625,14.8125 5.4140625,14.8359375 5.4140625,14.859375 5.4609375,14.90625 5.4609375,14.9296875 5.4375,14.953125 5.4609375,14.9296875 5.484375,14.953125 5.484375,14.9765625 5.5078125,15.0 5.5078125,15.0234375 5.484375,15.046875 5.484375,15.0703125 5.484375,15.046875 5.5078125,15.0234375 5.53125,15.046875 5.53125,15.0703125 5.5546875,15.09375 5.53125,15.1171875 5.5078125,15.1171875 5.53125,15.140625 5.53125,15.1171875 5.5546875,15.09375 5.578125,15.1171875 5.578125,15.140625 5.625,15.1875 5.625,15.2109375 5.6484375,15.234375 5.6484375,15.2578125 5.6953125,15.3046875 5.6953125,15.328125 5.671875,15.3515625 5.6953125,15.328125 5.7421875,15.375 5.7421875,15.3984375 5.7890625,15.4453125 5.7890625,15.46875 5.8359375,15.515625 5.8359375,15.5390625 5.859375,15.5625 5.8359375,15.5859375 5.859375,15.5625 5.8828125,15.5859375 5.8828125,15.609375 5.859375,15.6328125 5.8828125,15.609375 5.9296875,15.65625 5.90625,15.6796875 5.9296875,15.65625 5.953125,15.6796875 5.953125,15.703125 6.0234375,15.7734375 6.0,15.796875 6.0234375,15.8203125 6.0,15.84375 6.0234375,15.84375 6.046875,15.8671875 6.0703125,15.84375 6.1171875,15.890625 6.09375,15.9140625 6.046875,15.9140625 6.1171875,15.9140625 6.234375,16.03125 6.234375,16.0546875 6.3515625,16.171875 6.3515625,16.1953125 6.421875,16.265625 6.3984375,16.2890625 6.421875,16.265625 6.4921875,16.3359375 6.46875,16.359375 6.4921875,16.3359375 6.609375,16.453125 6.5859375,16.4765625 6.5859375,16.5 6.5859375,16.4765625 6.609375,16.453125 6.796875,16.640625 6.7734375,16.6640625 6.796875,16.640625 6.8671875,16.7109375 6.84375,16.734375 6.84375,16.7578125 6.84375,16.734375 6.8671875,16.7109375 6.984375,16.828125 6.9609375,16.8515625 6.984375,16.828125 7.0078125,16.828125 7.03125,16.8515625 7.03125,16.875 7.0546875,16.875 7.078125,16.8984375 7.078125,16.921875 7.1015625,16.921875 7.1484375,16.96875 7.125,16.9921875 7.1484375,17.015625 7.1484375,17.0390625 7.171875,17.0625 7.1484375,17.0859375 7.171875,17.0625 7.1953125,17.0859375 7.1953125,17.109375 7.1484375,17.15625 7.125,17.1328125 7.1484375,17.15625 7.1484375,17.1796875 7.125,17.203125 7.125,17.2265625 7.1015625,17.25 7.1015625,17.2734375 7.078125,17.296875 7.078125,17.3203125 7.0546875,17.34375 7.0546875,17.3671875 7.03125,17.390625 7.03125,17.4375 7.0078125,17.4609375 7.0078125,17.484375 6.984375,17.5078125 6.9609375,17.5078125 6.984375,17.53125 6.984375,17.5546875 6.9609375,17.578125 6.9609375,17.6484375 6.9375,17.671875 6.9375,17.7421875 6.9140625,17.765625 6.9140625,17.8828125 6.890625,17.90625 6.890625,18.046875 6.8671875,18.0703125 6.8671875,18.2109375 6.84375,18.234375 6.7734375,18.1640625 6.8203125,18.2109375 6.796875,18.234375 6.8203125,18.2109375 6.84375,18.234375 6.84375,18.3984375 6.8203125,18.421875 6.7734375,18.375 6.796875,18.3515625 6.7734375,18.375 6.75,18.375 6.7734375,18.3984375 6.796875,18.3984375 6.8203125,18.421875 6.8203125,18.5859375 6.796875,18.609375 6.796875,18.7734375 6.7734375,18.796875 6.75,18.7734375 6.75,18.7265625 6.75,18.84375 6.7734375,18.8671875 6.7734375,18.984375 6.75,19.0078125 6.75,19.171875 6.7265625,19.1953125 6.7265625,19.3828125 6.703125,19.40625 6.703125,19.6171875 6.6796875,19.640625 6.6796875,19.6640625 6.703125,19.6875 6.703125,19.8984375 6.7265625,19.921875 6.7265625,19.96875 6.75,19.9921875 6.75,20.015625 6.7734375,20.0390625 6.75,20.0625 6.7734375,20.0625 6.796875,20.0859375 6.7734375,20.109375 6.75,20.109375 6.7734375,20.109375 6.796875,20.0859375 6.8203125,20.109375 6.8203125,20.1328125 6.84375,20.15625 6.8203125,20.1796875 6.8203125,20.203125 6.8203125,20.1796875 6.84375,20.15625 6.890625,20.203125 6.8671875,20.2265625 6.890625,20.203125 6.9140625,20.2265625 6.9375,20.2265625 6.9609375,20.25 6.9375,20.2734375 6.9609375,20.296875 6.9375,20.3203125 6.9609375,20.296875 6.984375,20.3203125 6.9609375,20.296875 6.984375,20.2734375 7.0078125,20.2734375 7.03125,20.296875 7.0546875,20.296875 7.078125,20.3203125 7.1015625,20.3203125 7.125,20.34375 7.21875,20.34375 7.2421875,20.3671875 13.2890625,20.3671875 13.3125,20.390625 13.3125,20.4140625 13.359375,20.4140625 13.3359375,20.4140625 13.3125,20.390625 13.3359375,20.3671875 16.546875,20.3671875 16.5703125,20.390625 16.546875,20.4140625 16.5703125,20.4140625 16.5703125,20.390625 16.59375,20.3671875 16.6640625,20.3671875 16.7109375,20.4140625 16.734375,20.4140625 16.7109375,20.4140625 16.6875,20.390625 16.7109375,20.3671875 16.7578125,20.3671875 16.78125,20.34375 16.828125,20.34375 16.8515625,20.3671875 16.828125,20.34375 16.8515625,20.3203125 16.8984375,20.3203125 16.921875,20.34375 16.8984375,20.3671875 16.921875,20.34375 16.8984375,20.3203125 16.921875,20.296875 16.9453125,20.296875 16.96875,20.2734375 16.9921875,20.2734375 17.0390625,20.2265625 17.0625,20.2265625 17.15625,20.1328125 17.15625,20.109375 17.203125,20.0625 17.203125,20.0390625 17.2265625,20.015625 17.2265625,19.9921875 17.25,19.96875 17.2734375,19.9921875 17.25,19.96875 17.25,19.921875 17.2734375,19.8984375 17.2734375,19.5234375 17.25,19.5 17.2734375,19.4765625 17.25,19.453125 17.25,19.2421875 17.2265625,19.21875 17.2265625,19.03125 17.203125,19.0078125 17.203125,18.84375 17.1796875,18.8203125 17.1796875,18.65625 17.15625,18.6328125 17.15625,18.4453125 17.1328125,18.421875 17.1328125,18.234375 17.109375,18.2109375 17.109375,18.046875 17.0859375,18.0234375 17.0859375,17.90625 17.109375,17.8828125 17.0859375,17.90625 17.0625,17.8828125 17.0625,17.8125 17.0390625,17.7890625 17.0390625,17.6953125 17.015625,17.671875 17.015625,17.6484375 17.0390625,17.625 16.9921875,17.578125 16.9921875,17.5546875 16.96875,17.53125 16.96875,17.484375 16.9453125,17.4609375 16.9453125,17.4140625 16.96875,17.390625 16.96875,17.34375 16.96875,17.390625 16.9453125,17.4140625 16.921875,17.390625 16.921875,17.3671875 16.8984375,17.34375 16.8984375,17.3203125 16.875,17.296875 16.875,17.2734375 16.8515625,17.25 16.8515625,17.2265625 16.828125,17.203125 16.828125,17.1796875 16.8046875,17.15625 16.8046875,17.1328125 16.828125,17.109375 16.8515625,17.1328125 16.828125,17.109375 16.8046875,17.1328125 16.7578125,17.0859375 16.7578125,17.0390625 16.78125,17.015625 16.8046875,17.015625 16.828125,17.0390625 16.828125,17.0625 16.828125,17.0390625 16.8046875,17.015625 16.9453125,16.875 16.96875,16.875 17.015625,16.828125 17.0390625,16.8515625 17.015625,16.828125 17.0859375,16.7578125 17.109375,16.78125 17.0859375,16.7578125 17.15625,16.6875 17.1796875,16.6875 17.203125,16.6640625 17.2265625,16.6640625 17.2265625,16.640625 17.3671875,16.5 17.390625,16.5234375 17.390625,16.546875 17.4140625,16.546875 17.3671875,16.5 17.578125,16.2890625 17.6015625,16.2890625 17.6015625,16.2421875 17.765625,16.078125 17.7890625,16.1015625 17.765625,16.078125 17.765625,16.0546875 17.8828125,15.9375 17.8828125,15.9140625 17.9765625,15.8203125 17.9765625,15.796875 18.046875,15.7265625 18.046875,15.703125 18.1171875,15.6328125 18.1171875,15.609375 18.1875,15.5390625 18.1875,15.515625 18.234375,15.46875 18.234375,15.4453125 18.28125,15.3984375 18.28125,15.375 18.328125,15.328125 18.3515625,15.3515625 18.328125,15.328125 18.328125,15.3046875 18.375,15.2578125 18.375,15.234375 18.3984375,15.2109375 18.3984375,15.1875 18.4453125,15.140625 18.4453125,15.1171875 18.46875,15.09375 18.46875,15.0703125 18.4921875,15.046875 18.515625,15.0703125 18.4921875,15.046875 18.515625,15.0234375 18.515625,15.0 18.5390625,14.9765625 18.5390625,14.953125 18.5625,14.9296875 18.5625,14.90625 18.5859375,14.8828125 18.5859375,14.859375 18.6328125,14.8125 18.6328125,14.7890625 18.65625,14.765625 18.65625,14.7421875 18.6796875,14.71875 18.6796875,14.6953125 18.703125,14.671875 18.703125,14.6484375 18.7265625,14.625 18.7265625,14.6015625 18.75,14.578125 18.75,14.5546875 18.7734375,14.53125 18.7734375,14.5078125 18.796875,14.484375 18.796875,14.4609375 18.8203125,14.4375 18.8203125,14.4140625 18.84375,14.390625 18.84375,14.3671875 18.8671875,14.34375 18.8671875,14.3203125 18.890625,14.296875 18.890625,14.25 18.9140625,14.2265625 18.9140625,14.203125 18.9375,14.1796875 18.9375,14.15625 18.9609375,14.1328125 18.9609375,14.0859375 18.984375,14.0625 18.984375,14.0390625 19.0078125,14.015625 19.0078125,13.96875 19.03125,13.9453125 19.03125,13.921875 19.0546875,13.8984375 19.0546875,13.8515625 19.078125,13.828125 19.078125,13.8046875 19.1015625,13.78125 19.1015625,13.734375 19.125,13.7109375 19.125,13.6640625 19.1484375,13.640625 19.1484375,13.59375 19.171875,13.5703125 19.171875,13.5234375 19.1953125,13.5 19.1953125,13.453125 19.21875,13.4296875 19.21875,13.359375 19.2421875,13.3359375 19.2421875,13.2890625 19.265625,13.265625 19.2890625,13.2890625 19.265625,13.265625 19.265625,13.1953125 19.2890625,13.171875 19.2890625,13.125 19.3125,13.1015625 19.3125,13.0078125 19.3359375,12.984375 19.3359375,12.9140625 19.359375,12.890625 19.3828125,12.9140625 19.40625,12.9140625 19.40625,12.890625 19.3828125,12.9140625 19.359375,12.890625 19.359375,12.8203125 19.3828125,12.796875 19.3828125,12.6796875 19.40625,12.65625 19.40625,12.5625 19.4296875,12.5390625 19.4296875,12.421875 19.453125,12.3984375 19.453125,12.2578125 19.4765625,12.234375 19.4765625,12.046875 19.5,12.0234375 19.5,11.7421875 19.5234375,11.71875 19.5234375,10.8515625 19.5,10.828125 19.5,10.546875 19.4765625,10.5234375 19.4765625,10.3125 19.453125,10.2890625 19.453125,10.1484375 19.4765625,10.125 19.4765625,10.0546875 19.4765625,10.125 19.453125,10.1484375 19.4296875,10.125 19.4296875,10.0078125 19.453125,9.984375 19.4765625,10.0078125 19.453125,9.984375 19.4296875,9.984375 19.40625,9.9609375 19.40625,9.8671875 19.3828125,9.84375 19.3828125,9.7265625 19.359375,9.703125 19.359375,9.609375 19.3359375,9.5859375 19.3359375,9.5390625 19.3125,9.515625 19.3125,9.421875 19.2890625,9.3984375 19.2890625,9.328125 19.265625,9.3046875 19.265625,9.2578125 19.2421875,9.234375 19.2421875,9.1640625 19.265625,9.140625 19.265625,9.1171875 19.265625,9.140625 19.2421875,9.1640625 19.21875,9.140625 19.21875,9.09375 19.1953125,9.0703125 19.1953125,9.0 19.171875,8.9765625 19.171875,8.9296875 19.1484375,8.90625 19.1484375,8.859375 19.125,8.8359375 19.125,8.7890625 19.1015625,8.765625 19.1015625,8.71875 19.078125,8.6953125 19.078125,8.671875 19.0546875,8.6484375 19.0546875,8.6015625 19.03125,8.578125 19.03125,8.53125 19.0078125,8.5078125 19.0078125,8.4609375 18.984375,8.4375 18.984375,8.4140625 18.9609375,8.390625 18.9609375,8.3671875 18.9375,8.34375 18.9375,8.296875 18.9140625,8.2734375 18.9140625,8.25 18.890625,8.2265625 18.890625,8.203125 18.8671875,8.1796875 18.8671875,8.1328125 18.84375,8.109375 18.84375,8.0859375 18.8203125,8.0625 18.8203125,8.0390625 18.84375,8.015625 18.8203125,8.0390625 18.796875,8.015625 18.796875,7.9921875 18.7734375,7.96875 18.7734375,7.9453125 18.75,7.921875 18.75,7.8984375 18.7265625,7.875 18.7265625,7.8515625 18.703125,7.828125 18.703125,7.78125 18.7265625,7.7578125 18.703125,7.78125 18.6796875,7.7578125 18.6796875,7.734375 18.7265625,7.6875 18.703125,7.6640625 18.7265625,7.6875 18.6796875,7.734375 18.6328125,7.6875 18.6328125,7.6640625 18.609375,7.640625 18.609375,7.6171875 18.6328125,7.59375 18.609375,7.6171875 18.5859375,7.59375 18.5859375,7.5703125 18.5625,7.546875 18.5625,7.5234375 18.515625,7.4765625 18.515625,7.453125 18.4921875,7.4296875 18.4921875,7.40625 18.515625,7.3828125 18.4921875,7.40625 18.46875,7.3828125 18.46875,7.359375 18.4453125,7.3359375 18.4453125,7.3125 18.3984375,7.265625 18.3984375,7.2421875 18.375,7.21875 18.375,7.1953125 18.328125,7.1484375 18.3515625,7.125 18.3515625,7.1015625 18.328125,7.125 18.28125,7.078125 18.28125,7.0546875 18.3046875,7.03125 18.28125,7.0546875 18.234375,7.0078125 18.234375,6.984375 18.1875,6.9375 18.1875,6.9140625 18.140625,6.8671875 18.1640625,6.84375 18.140625,6.8671875 18.1171875,6.84375 18.1171875,6.8203125 18.140625,6.796875 18.1171875,6.8203125 18.046875,6.75 18.046875,6.7265625 18.0234375,6.703125 18.046875,6.6796875 18.0234375,6.703125 17.9765625,6.65625 17.9765625,6.6328125 17.9296875,6.5859375 17.953125,6.5625 17.9765625,6.5625 17.953125,6.5625 17.9296875,6.5859375 17.90625,6.5625 17.90625,6.5390625 17.8125,6.4453125 17.8125,6.421875 17.7890625,6.3984375 17.7890625,6.375 17.765625,6.375 17.7421875,6.3515625 17.7421875,6.328125 17.765625,6.3046875 17.7421875,6.3046875 17.71875,6.328125 17.6484375,6.2578125 17.6484375,6.234375 17.625,6.2109375 17.6484375,6.1875 17.625,6.2109375 17.578125,6.1640625 17.6015625,6.140625 17.578125,6.1640625 17.4375,6.0234375 17.4375,6.0 17.4140625,5.9765625 17.4140625,5.953125 17.390625,5.953125 17.296875,5.859375 17.3203125,5.8359375 17.296875,5.8125 17.2734375,5.8359375 17.15625,5.71875 17.1328125,5.71875 17.0859375,5.671875 17.1328125,5.625 17.109375,5.6484375 17.0859375,5.625 17.0625,5.6484375 16.921875,5.5078125 16.8984375,5.5078125 16.8046875,5.4140625 16.78125,5.4140625 16.7109375,5.34375 16.734375,5.3203125 16.7109375,5.296875 16.6875,5.3203125 16.6640625,5.3203125 16.6171875,5.2734375 16.640625,5.25 16.6640625,5.25 16.640625,5.25 16.6171875,5.2734375 16.5703125,5.2265625 16.546875,5.2265625 16.4765625,5.15625 16.453125,5.15625 16.4296875,5.1328125 16.453125,5.109375 16.4765625,5.109375 16.453125,5.109375 16.4296875,5.1328125 16.3828125,5.0859375 16.359375,5.0859375 16.3125,5.0390625 16.2890625,5.0390625 16.265625,5.015625 16.2890625,4.9921875 16.2421875,4.9453125 16.265625,4.921875 16.2890625,4.921875 16.265625,4.921875 16.2421875,4.9453125 16.21875,4.9453125 16.1953125,4.921875 16.21875,4.9453125 16.1953125,4.96875 16.171875,4.96875 16.1015625,4.8984375 16.1015625,4.875 16.078125,4.8984375 16.0546875,4.875 16.03125,4.875 15.984375,4.828125 15.9609375,4.828125 15.9140625,4.78125 15.890625,4.78125 15.8671875,4.7578125 15.890625,4.734375 15.9140625,4.734375 15.890625,4.734375 15.8671875,4.7109375 15.890625,4.6875 15.8671875,4.6875 15.8671875,4.7109375 15.890625,4.734375 15.8671875,4.7578125 15.84375,4.7578125 15.796875,4.7109375 15.8203125,4.6875 15.796875,4.6875 15.7734375,4.7109375 15.75,4.6875 15.7265625,4.6875 15.703125,4.6640625 15.6796875,4.6640625 15.65625,4.640625 15.6328125,4.640625 15.609375,4.6171875 15.5859375,4.6171875 15.5625,4.59375 15.5859375,4.5703125 15.5625,4.546875 15.5859375,4.5703125 15.5625,4.59375 15.5390625,4.59375 15.4921875,4.546875 15.515625,4.5234375 15.515625,4.5 15.515625,4.5234375 15.4921875,4.546875 15.46875,4.546875 15.4453125,4.5234375 15.46875,4.5 15.4453125,4.5234375 15.421875,4.5234375 15.3984375,4.5 15.375,4.5 15.3515625,4.4765625 15.328125,4.4765625 15.3046875,4.453125 15.28125,4.453125 15.2578125,4.4296875 15.2109375,4.4296875 15.1875,4.40625 15.1640625,4.40625 15.140625,4.3828125 15.1171875,4.3828125 15.09375,4.359375 15.1171875,4.3359375 15.09375,4.359375 15.046875,4.359375 15.0234375,4.3359375 15.0,4.3359375 14.9765625,4.3125 14.953125,4.3125 14.9296875,4.2890625 14.8828125,4.2890625 14.859375,4.265625 14.8359375,4.265625 14.8125,4.2421875 14.765625,4.2421875 14.7421875,4.21875 14.765625,4.1953125 14.7421875,4.171875 14.765625,4.1953125 14.7421875,4.21875 14.6953125,4.21875 14.671875,4.1953125 14.6484375,4.1953125 14.625,4.171875 14.6484375,4.1484375 14.671875,4.1484375 14.6484375,4.1484375 14.625,4.171875 14.5546875,4.171875 14.53125,4.1484375 14.5078125,4.1484375 14.484375,4.125 14.4140625,4.125 14.390625,4.1015625 14.34375,4.1015625 14.3203125,4.078125 14.2734375,4.078125 14.25,4.0546875 14.203125,4.0546875 14.1796875,4.03125 14.109375,4.03125 14.0859375,4.0078125 14.0390625,4.0078125 14.015625,3.984375 13.921875,3.984375 13.8984375,3.9609375 13.921875,3.9375 13.8984375,3.9609375 13.8515625,3.9609375 13.828125,3.9375 13.734375,3.9375 13.7109375,3.9140625 13.640625,3.9140625 13.6171875,3.890625 13.5,3.890625 13.4765625,3.8671875 13.3828125,3.8671875 13.359375,3.84375 13.2421875,3.84375 13.21875,3.8203125 13.078125,3.8203125 13.0546875,3.796875 12.890625,3.796875 12.8671875,3.7734375 12.890625,3.75 12.9140625,3.75 12.890625,3.75 12.8671875,3.7734375 12.84375,3.75 12.8203125,3.7734375 12.796875,3.7734375 12.7734375,3.75 12.75,3.7734375 12.7265625,3.7734375 12.703125,3.75 12.6796875,3.7734375 12.65625,3.75 12.234375,3.75 12.2109375,3.7265625" /></svg>